<?xml version="1.0" encoding="UTF-8" standalone="no"?>
<!-- Generator: Adobe Illustrator 16.0.0, SVG Export Plug-In . SVG Version: 6.00 Build 0)  -->

<svg
   xmlns:dc="http://purl.org/dc/elements/1.1/"
   xmlns:cc="http://creativecommons.org/ns#"
   xmlns:rdf="http://www.w3.org/1999/02/22-rdf-syntax-ns#"
   xmlns:svg="http://www.w3.org/2000/svg"
   xmlns="http://www.w3.org/2000/svg"
   xmlns:sodipodi="http://sodipodi.sourceforge.net/DTD/sodipodi-0.dtd"
   xmlns:inkscape="http://www.inkscape.org/namespaces/inkscape"
   version="1.1"
   id="Layer_1"
   x="0px"
   y="0px"
   width="595.28px"
   height="524.725px"
   viewBox="0 0 595.28 524.725"
   enable-background="new 0 0 595.28 524.725"
   xml:space="preserve"
   inkscape:version="0.91 r13725"
   sodipodi:docname="14mm wheel cnc.svg"><metadata
     id="metadata69"><rdf:RDF><cc:Work
         rdf:about=""><dc:format>image/svg+xml</dc:format><dc:type
           rdf:resource="http://purl.org/dc/dcmitype/StillImage" /><dc:title></dc:title></cc:Work></rdf:RDF></metadata><defs
     id="defs67" /><sodipodi:namedview
     pagecolor="#ffffff"
     bordercolor="#666666"
     borderopacity="1"
     objecttolerance="10"
     gridtolerance="10"
     guidetolerance="10"
     inkscape:pageopacity="0"
     inkscape:pageshadow="2"
     inkscape:window-width="1440"
     inkscape:window-height="806"
     id="namedview65"
     showgrid="false"
     inkscape:zoom="5.0266175"
     inkscape:cx="75.489302"
     inkscape:cy="477.52476"
     inkscape:window-x="0"
     inkscape:window-y="0"
     inkscape:window-maximized="1"
     inkscape:current-layer="Layer_1" /><path
     style="color:#000000;font-style:normal;font-variant:normal;font-weight:normal;font-stretch:normal;font-size:medium;line-height:normal;font-family:sans-serif;text-indent:0;text-align:start;text-decoration:none;text-decoration-line:none;text-decoration-style:solid;text-decoration-color:#000000;letter-spacing:normal;word-spacing:normal;text-transform:none;direction:ltr;block-progression:tb;writing-mode:lr-tb;baseline-shift:baseline;text-anchor:start;white-space:normal;clip-rule:nonzero;display:inline;overflow:visible;visibility:visible;opacity:1;isolation:auto;mix-blend-mode:normal;color-interpolation:sRGB;color-interpolation-filters:linearRGB;solid-color:#000000;solid-opacity:1;fill:#010101;fill-opacity:1;fill-rule:nonzero;stroke:none;stroke-width:0.23473272;stroke-linecap:butt;stroke-linejoin:miter;stroke-miterlimit:10;stroke-dasharray:none;stroke-dashoffset:0;stroke-opacity:1;color-rendering:auto;image-rendering:auto;shape-rendering:auto;text-rendering:auto;enable-background:accumulate"
     d="m 62.617188,34.332031 c -13.696749,0 -24.802735,11.060354 -24.802735,24.701172 0,13.640818 11.105986,24.701172 24.802735,24.701172 13.696748,10e-7 24.802734,-11.060354 24.802734,-24.701172 0,-13.640818 -11.105986,-24.701172 -24.802734,-24.701172 z m 0,0.234375 c 13.570415,0 24.568359,10.953365 24.568359,24.466797 0,13.513432 -10.997944,24.464844 -24.568359,24.464844 -13.570415,0 -24.56836,-10.951412 -24.56836,-24.464844 0,-13.513431 10.997945,-24.466797 24.56836,-24.466797 z"
     id="ellipse3"
     inkscape:connector-curvature="0" /><path
     stroke-miterlimit="10"
     d="M 40.83333,64.181451"
     id="path5"
     inkscape:connector-curvature="0"
     style="fill:none;stroke:#010101;stroke-width:0.11736636;stroke-miterlimit:10" /><path
     style="color:#000000;font-style:normal;font-variant:normal;font-weight:normal;font-stretch:normal;font-size:medium;line-height:normal;font-family:sans-serif;text-indent:0;text-align:start;text-decoration:none;text-decoration-line:none;text-decoration-style:solid;text-decoration-color:#000000;letter-spacing:normal;word-spacing:normal;text-transform:none;direction:ltr;block-progression:tb;writing-mode:lr-tb;baseline-shift:baseline;text-anchor:start;white-space:normal;clip-rule:nonzero;display:inline;overflow:visible;visibility:visible;opacity:1;isolation:auto;mix-blend-mode:normal;color-interpolation:sRGB;color-interpolation-filters:linearRGB;solid-color:#000000;solid-opacity:1;fill:#030303;fill-opacity:1;fill-rule:nonzero;stroke:none;stroke-width:0.23473272;stroke-linecap:butt;stroke-linejoin:miter;stroke-miterlimit:10;stroke-dasharray:none;stroke-dashoffset:0;stroke-opacity:1;color-rendering:auto;image-rendering:auto;shape-rendering:auto;text-rendering:auto;enable-background:accumulate"
     d="m 41.224609,59.511719 -0.210937,0.304687 c -0.0393,0.05659 -0.05057,0.111666 -0.06055,0.173828 -0.01,0.06216 -0.01356,0.130418 -0.01563,0.197266 -0.0041,0.133696 0.0024,0.262997 0.0059,0.322266 l 0,0.002 c 0.06376,1.072765 0.209423,2.009527 0.433594,3.05664 0.02047,0.09608 0.06991,0.292843 0.25,0.396485 0.154721,0.08894 0.332675,0.07866 0.474609,0.05859 0.141935,-0.02007 0.253907,-0.05859 0.253907,-0.05859 l -0.0078,0.0039 c 0,0 3.358217,-0.874368 6.757813,-1.755859 1.699798,-0.440746 3.410416,-0.883846 4.716797,-1.220703 0.65319,-0.168429 1.204199,-0.310213 1.603515,-0.41211 0.399316,-0.101897 0.66354,-0.165913 0.683594,-0.169922 0.173868,-0.03462 0.336885,-0.07657 0.464844,-0.162109 0.06398,-0.04277 0.120211,-0.09931 0.152343,-0.173828 0.03213,-0.07451 0.03606,-0.162552 0.01367,-0.25 -0.02897,-0.113236 -0.1229,-0.184573 -0.214843,-0.222657 -0.09194,-0.03808 -0.191649,-0.05193 -0.28711,-0.05859 -0.19092,-0.01332 -0.367187,0.0098 -0.367187,0.0098 l 0.01563,-0.002 c 0,0 -3.206402,-8.59e-4 -6.544922,-0.0059 -3.33852,-0.005 -6.817089,-0.01315 -7.337891,-0.02539 -0.278555,-0.0065 -0.477106,0.0045 -0.634765,0.04883 -0.06326,0.0178 -0.09209,0.06889 -0.142579,0.09961 l -0.002,-0.15625 z m 0.773438,0.242187 c 0.54242,0.01275 4.005093,0.02039 7.34375,0.02539 3.338657,0.005 6.544922,0.0059 6.544922,0.0059 l 0.0078,0 0.0059,0 c 0,0 0.160736,-0.01908 0.322265,-0.0078 0.08076,0.0056 0.159638,0.01896 0.212891,0.04102 0.05325,0.02206 0.0704,0.0419 0.07617,0.06445 0.01236,0.04829 0.008,0.07451 -0.002,0.09766 -0.01,0.02315 -0.02876,0.0471 -0.06641,0.07227 -0.07529,0.05034 -0.217537,0.09444 -0.380859,0.126954 -0.06425,0.01284 -0.29368,0.07184 -0.693359,0.173828 -0.39968,0.10199 -0.952179,0.243655 -1.605469,0.412109 -1.30658,0.336909 -3.016947,0.779944 -4.716797,1.220703 -3.399701,0.881519 -6.757812,1.753906 -6.757813,1.753906 l -0.0039,0.002 -0.0039,0.002 c 0,0 -0.09249,0.03013 -0.210938,0.04687 -0.118443,0.01675 -0.256018,0.01103 -0.326171,-0.0293 -0.06074,-0.03496 -0.126283,-0.184051 -0.138672,-0.242188 -0.222525,-1.039426 -0.364743,-1.963662 -0.427735,-3.023437 -0.0033,-0.0561 -0.0096,-0.181598 -0.0059,-0.302735 0.0019,-0.06057 0.0062,-0.11958 0.01367,-0.166015 0.0075,-0.04644 0.02329,-0.08072 0.02148,-0.07813 0.05636,-0.08106 0.110436,-0.123582 0.226563,-0.15625 0.116126,-0.03267 0.295377,-0.04535 0.564453,-0.03906 z"
     id="path7"
     inkscape:connector-curvature="0" /><path
     stroke-miterlimit="10"
     d="M 67.15532,67.194011"
     id="path9"
     inkscape:connector-curvature="0"
     style="fill:none;stroke:#010101;stroke-width:0.11736636;stroke-miterlimit:10" /><path
     style="color:#000000;font-style:normal;font-variant:normal;font-weight:normal;font-stretch:normal;font-size:medium;line-height:normal;font-family:sans-serif;text-indent:0;text-align:start;text-decoration:none;text-decoration-line:none;text-decoration-style:solid;text-decoration-color:#000000;letter-spacing:normal;word-spacing:normal;text-transform:none;direction:ltr;block-progression:tb;writing-mode:lr-tb;baseline-shift:baseline;text-anchor:start;white-space:normal;clip-rule:nonzero;display:inline;overflow:visible;visibility:visible;opacity:1;isolation:auto;mix-blend-mode:normal;color-interpolation:sRGB;color-interpolation-filters:linearRGB;solid-color:#000000;solid-opacity:1;fill:#030303;fill-opacity:1;fill-rule:nonzero;stroke:none;stroke-width:0.23473272;stroke-linecap:butt;stroke-linejoin:miter;stroke-miterlimit:10;stroke-dasharray:none;stroke-dashoffset:0;stroke-opacity:1;color-rendering:auto;image-rendering:auto;shape-rendering:auto;text-rendering:auto;enable-background:accumulate"
     d="m 46.537109,44.550781 c -0.142521,0 -0.220703,0.0957 -0.220703,0.0957 l -0.0039,0.0039 -0.0039,0.0039 c -0.854659,0.951956 -1.43493,1.710506 -2.09961,2.789062 -0.0085,0.01378 -0.05682,0.08151 -0.09961,0.158203 -0.04279,0.0767 -0.08862,0.168785 -0.0918,0.277344 -0.0072,0.24415 0.142972,0.585219 0.703125,0.882813 0.926241,0.492068 12.291016,6.75 12.291016,6.75 0.01044,0.0075 0.137289,0.09936 0.304687,0.175781 0.08704,0.03974 0.182289,0.07549 0.28125,0.08594 0.09896,0.01045 0.215393,-0.0081 0.294922,-0.09375 0.06143,-0.06615 0.100075,-0.145751 0.107422,-0.226563 0.0073,-0.08081 -0.01499,-0.156493 -0.05078,-0.224609 -0.07158,-0.136233 -0.195891,-0.251783 -0.332031,-0.365235 -0.006,-0.005 -0.06571,-0.05964 -0.154297,-0.142578 -0.08859,-0.08294 -0.211923,-0.198606 -0.363282,-0.341797 -0.302716,-0.286382 -0.720425,-0.683767 -1.214843,-1.154297 -0.988837,-0.94106 -2.282825,-2.175014 -3.56836,-3.402343 -2.568056,-2.451781 -5.097574,-4.869319 -5.103515,-4.875 l -0.0059,-0.0059 c -0.0049,-0.0054 -0.08387,-0.09409 -0.203125,-0.1875 -0.122825,-0.09621 -0.281426,-0.203125 -0.466797,-0.203125 z m 0,0.234375 c 0.07988,0 0.21486,0.0717 0.320313,0.154297 0.105452,0.0826 0.181641,0.164063 0.18164,0.164063 l 0.002,0.0039 0.0039,0.002 c 0,0 2.538212,2.428066 5.109375,4.882813 1.285581,1.227373 2.579346,2.461115 3.568359,3.402343 0.494507,0.470614 0.911805,0.86761 1.214844,1.154297 0.15152,0.143344 0.274144,0.260297 0.363281,0.34375 0.08914,0.08345 0.13903,0.129856 0.166016,0.152344 0.127929,0.106608 0.23132,0.212809 0.273437,0.292969 0.02106,0.04008 0.02767,0.07061 0.02539,0.0957 -0.0023,0.02509 -0.01099,0.0494 -0.04492,0.08594 -0.01583,0.01705 -0.04034,0.02558 -0.09766,0.01953 -0.05732,-0.0061 -0.135341,-0.03083 -0.208985,-0.06445 -0.147286,-0.06724 -0.277343,-0.160156 -0.277343,-0.160156 l -0.0059,-0.0039 -0.0059,-0.0039 c 0,0 -11.3433,-6.248355 -12.294922,-6.753907 -0.513045,-0.272566 -0.58062,-0.516119 -0.576172,-0.667968 0.0012,-0.03991 0.02635,-0.108621 0.06055,-0.169922 0.0342,-0.0613 0.06972,-0.109417 0.09375,-0.148438 0.657167,-1.066365 1.224624,-1.807587 2.070313,-2.75 0.0067,-0.0037 0.05886,-0.03125 0.05859,-0.03125 z"
     id="path11"
     inkscape:connector-curvature="0" /><path
     style="color:#000000;font-style:normal;font-variant:normal;font-weight:normal;font-stretch:normal;font-size:medium;line-height:normal;font-family:sans-serif;text-indent:0;text-align:start;text-decoration:none;text-decoration-line:none;text-decoration-style:solid;text-decoration-color:#000000;letter-spacing:normal;word-spacing:normal;text-transform:none;direction:ltr;block-progression:tb;writing-mode:lr-tb;baseline-shift:baseline;text-anchor:start;white-space:normal;clip-rule:nonzero;display:inline;overflow:visible;visibility:visible;opacity:1;isolation:auto;mix-blend-mode:normal;color-interpolation:sRGB;color-interpolation-filters:linearRGB;solid-color:#000000;solid-opacity:1;fill:#030303;fill-opacity:1;fill-rule:nonzero;stroke:none;stroke-width:0.23473272;stroke-linecap:butt;stroke-linejoin:miter;stroke-miterlimit:10;stroke-dasharray:none;stroke-dashoffset:0;stroke-opacity:1;color-rendering:auto;image-rendering:auto;shape-rendering:auto;text-rendering:auto;enable-background:accumulate"
     d="m 43.318359,49.208984 c -0.160933,0.04651 -0.218968,0.191711 -0.238281,0.230469 -0.558824,1.12163 -0.912341,2.041384 -1.269531,3.283203 0,0 -0.0827,0.193305 0.01758,0.41211 0.100281,0.218804 0.364442,0.4484 0.958984,0.595703 1.030682,0.255293 13.53711,3.373047 13.53711,3.373047 l -0.01563,-0.0059 c 0,0 0.165181,0.06768 0.353515,0.101563 0.09417,0.01694 0.196458,0.0261 0.294922,0.01172 0.09846,-0.01438 0.205878,-0.06139 0.261719,-0.164063 0.04317,-0.07931 0.05975,-0.164009 0.04687,-0.244141 -0.01288,-0.08013 -0.05392,-0.149889 -0.105469,-0.207031 C 57.05705,56.48142 56.910064,56.402303 56.75,56.326172 56.731215,56.317216 56.488941,56.187263 56.121094,55.988281 55.753246,55.789299 55.244297,55.512907 54.642578,55.185547 53.43914,54.530827 51.8647,53.67287 50.298828,52.818359 47.172107,51.11208 44.091929,49.429238 44.082031,49.423828 l -0.0098,-0.0059 c -0.0082,-0.0054 -0.106868,-0.06983 -0.246094,-0.13086 -0.144908,-0.06352 -0.326811,-0.13033 -0.507813,-0.07813 z m 0.06445,0.226563 c 0.07498,-0.02163 0.225485,0.012 0.34961,0.06641 0.124125,0.05441 0.21875,0.117188 0.21875,0.117188 l 0.0059,0.002 0.0039,0.0039 c 0,0 3.092774,1.689368 6.224609,3.398438 1.565917,0.854534 3.142092,1.714326 4.345703,2.36914 0.601806,0.327407 1.110353,0.603582 1.478516,0.802734 0.368163,0.199153 0.579847,0.313753 0.638672,0.341797 0.150365,0.07152 0.277241,0.149573 0.33789,0.216797 0.03032,0.03361 0.04483,0.06106 0.04883,0.08594 0.004,0.02488 4.11e-4,0.05189 -0.02344,0.0957 -0.01112,0.02044 -0.03282,0.03464 -0.08984,0.04297 -0.05702,0.0083 -0.137129,0.0026 -0.216797,-0.01172 -0.159335,-0.02867 -0.308594,-0.08594 -0.308594,-0.08594 l -0.0078,-0.0039 -0.0078,-0.002 c 0,0 -12.503786,-3.115147 -13.537109,-3.371094 -0.555649,-0.137667 -0.741402,-0.332974 -0.802734,-0.466797 -0.06133,-0.133823 -0.01563,-0.21875 -0.01563,-0.21875 l 0.002,-0.0078 0.002,-0.0078 c 0.356071,-1.24087 0.703441,-2.143152 1.259765,-3.259765 0.01543,-0.03096 0.06784,-0.09994 0.09375,-0.107422 z"
     id="path13"
     inkscape:connector-curvature="0" /><path
     style="color:#000000;font-style:normal;font-variant:normal;font-weight:normal;font-stretch:normal;font-size:medium;line-height:normal;font-family:sans-serif;text-indent:0;text-align:start;text-decoration:none;text-decoration-line:none;text-decoration-style:solid;text-decoration-color:#000000;letter-spacing:normal;word-spacing:normal;text-transform:none;direction:ltr;block-progression:tb;writing-mode:lr-tb;baseline-shift:baseline;text-anchor:start;white-space:normal;clip-rule:nonzero;display:inline;overflow:visible;visibility:visible;opacity:1;isolation:auto;mix-blend-mode:normal;color-interpolation:sRGB;color-interpolation-filters:linearRGB;solid-color:#000000;solid-opacity:1;fill:#030303;fill-opacity:1;fill-rule:nonzero;stroke:none;stroke-width:0.23473272;stroke-linecap:butt;stroke-linejoin:miter;stroke-miterlimit:10;stroke-dasharray:none;stroke-dashoffset:0;stroke-opacity:1;color-rendering:auto;image-rendering:auto;shape-rendering:auto;text-rendering:auto;enable-background:accumulate"
     d="m 42.017578,54.283203 c -0.149971,-0.0187 -0.336971,-0.02842 -0.490234,0.07422 -0.146166,0.09773 -0.190508,0.251817 -0.212891,0.365234 -0.0014,0.007 -5.91e-4,0.01452 -0.002,0.02148 -0.198278,1.013949 -0.327343,2.053138 -0.378906,3.115234 -0.0028,0.05877 -0.01425,0.166102 -0.01172,0.28125 0.0025,0.115148 0.01466,0.241515 0.08008,0.353516 l 0,0.002 c 0.05559,0.09509 0.153533,0.176783 0.292969,0.224609 0.139436,0.04783 0.322004,0.06888 0.580078,0.06641 1.054976,-0.0099 13.967262,-0.03315 13.996094,-0.0332 0,0 0.176273,0.0231 0.367187,0.0098 0.09546,-0.0067 0.195172,-0.02247 0.28711,-0.06055 0.09194,-0.03807 0.185865,-0.109433 0.214843,-0.222656 0.02239,-0.08745 0.01846,-0.173533 -0.01367,-0.248047 -0.03213,-0.07451 -0.08836,-0.133009 -0.152343,-0.175781 -0.127961,-0.08554 -0.290971,-0.125542 -0.464844,-0.160157 -0.02042,-0.0041 -0.284408,-0.06998 -0.685547,-0.171875 -0.401139,-0.101898 -0.95697,-0.243679 -1.613281,-0.412109 -1.312621,-0.336859 -3.030164,-0.779956 -4.738281,-1.220703 -3.413234,-0.88072 -6.779236,-1.750421 -6.785157,-1.751953 l -0.0059,-0.002 c -0.0052,-0.0016 -0.117042,-0.0364 -0.263672,-0.05469 z m -0.0293,0.232422 c 0.126368,0.01576 0.228516,0.04687 0.228516,0.04687 l 0.002,0.002 0.0039,0 c 0,0 3.37468,0.874339 6.791016,1.755859 1.708168,0.440761 3.425465,0.883795 4.738281,1.220704 0.656408,0.168454 1.211788,0.31012 1.613281,0.412109 0.401494,0.101989 0.633386,0.161059 0.697266,0.173828 0.163327,0.03251 0.305565,0.07466 0.380859,0.125 0.03765,0.02517 0.05642,0.04912 0.06641,0.07227 0.01,0.02315 0.01432,0.05132 0.002,0.09961 -0.0058,0.02251 -0.02291,0.04044 -0.07617,0.0625 -0.05326,0.02206 -0.132123,0.03733 -0.212891,0.04297 -0.161535,0.01128 -0.320312,-0.0078 -0.320312,-0.0078 l -0.0078,-0.002 -0.0078,0 c 0,0 -12.942913,0.02313 -14.013672,0.0332 -0.243315,0.0023 -0.403312,-0.02085 -0.501953,-0.05469 -0.09864,-0.03383 -0.136391,-0.07041 -0.166016,-0.121094 -0.03,-0.05137 -0.04671,-0.143743 -0.04883,-0.240234 -0.0021,-0.09649 0.0083,-0.193767 0.01172,-0.265625 0.05136,-1.057987 0.178524,-2.094102 0.376953,-3.103516 0.01963,-0.09948 0.03943,-0.16677 0.111328,-0.214844 l 0.002,0 c 0.06152,-0.0412 0.20371,-0.05287 0.330078,-0.03711 z"
     id="path15"
     inkscape:connector-curvature="0" /><path
     style="color:#000000;font-style:normal;font-variant:normal;font-weight:normal;font-stretch:normal;font-size:medium;line-height:normal;font-family:sans-serif;text-indent:0;text-align:start;text-decoration:none;text-decoration-line:none;text-decoration-style:solid;text-decoration-color:#000000;letter-spacing:normal;word-spacing:normal;text-transform:none;direction:ltr;block-progression:tb;writing-mode:lr-tb;baseline-shift:baseline;text-anchor:start;white-space:normal;clip-rule:nonzero;display:inline;overflow:visible;visibility:visible;opacity:1;isolation:auto;mix-blend-mode:normal;color-interpolation:sRGB;color-interpolation-filters:linearRGB;solid-color:#000000;solid-opacity:1;fill:#010101;fill-opacity:1;fill-rule:nonzero;stroke:none;stroke-width:0.23473272;stroke-linecap:butt;stroke-linejoin:miter;stroke-miterlimit:10;stroke-dasharray:none;stroke-dashoffset:0;stroke-opacity:1;color-rendering:auto;image-rendering:auto;shape-rendering:auto;text-rendering:auto;enable-background:accumulate"
     d="m 50.900391,40.935547 c -0.08256,-0.02585 -0.157299,-0.01428 -0.226563,0.002 -0.06926,0.01624 -0.128034,0.03724 -0.177734,0.07031 -1.101528,0.734041 -1.971134,1.410503 -2.908203,2.320313 -0.0017,0.0017 -0.0095,0.01541 -0.01172,0.01758 l 0,-0.59375 -0.232422,0.951172 c -1.02e-4,4.18e-4 1.01e-4,0.0015 0,0.002 -0.0018,0.0075 0.01518,0.02149 0.01367,0.0293 l -0.01563,-0.002 0,0.980469 0.15625,-0.648438 c 0.04463,0.139436 0.0033,0.257499 0.175781,0.412109 0.172461,0.154596 1.341388,1.244869 2.839844,2.646485 1.498456,1.401616 3.332186,3.119537 4.855469,4.546875 0.978239,0.91663 1.834485,1.719425 2.398437,2.248047 0.0087,0.01022 0.197465,0.233998 0.435547,0.427734 0.121734,0.09906 0.253275,0.18868 0.390625,0.234375 0.06867,0.02285 0.140873,0.03481 0.214844,0.02148 0.07397,-0.01333 0.145606,-0.05574 0.195312,-0.121093 0.06093,-0.08008 0.07623,-0.180639 0.06836,-0.275391 -0.0079,-0.09475 -0.03704,-0.189537 -0.07617,-0.289062 -0.07827,-0.199051 -0.199104,-0.413917 -0.304688,-0.613282 -0.600799,-1.134512 -1.692507,-2.742988 -1.697265,-2.75 l -0.0039,-0.0059 -5.679687,-9.267578 c 0,0 -0.134515,-0.257474 -0.410156,-0.34375 z m -0.07031,0.224609 c 0.163079,0.05104 0.275391,0.234375 0.275391,0.234375 l 0.002,0.002 5.6875,9.28125 0.002,0.002 c 0,0 1.097628,1.620497 1.6875,2.734374 0.107676,0.203316 0.226276,0.413309 0.294922,0.587891 0.03432,0.08729 0.0557,0.164283 0.06055,0.222656 0.0048,0.05837 -0.005,0.09155 -0.02148,0.113282 -0.01807,0.02376 -0.0295,0.02937 -0.05078,0.0332 -0.02128,0.0038 -0.05582,8.95e-4 -0.09961,-0.01367 -0.08757,-0.02913 -0.206019,-0.105486 -0.316407,-0.195313 -0.220774,-0.179653 -0.414062,-0.40625 -0.414062,-0.40625 l -0.0059,-0.0059 -0.0039,-0.0039 C 57.363787,53.217476 56.507557,52.41665 55.529297,51.5 c -1.523308,-1.427362 -3.356916,-3.147122 -4.855469,-4.548828 -1.498553,-1.401707 -2.655896,-2.480043 -2.84375,-2.648438 -0.280179,-0.251106 -0.286251,-0.425975 -0.257812,-0.542968 0.01911,-0.07871 0.15904,-0.243492 0.179687,-0.263672 0.926709,-0.89975 1.781306,-1.564149 2.875,-2.292969 0.006,-0.004 0.0538,-0.02637 0.09961,-0.03711 0.04581,-0.01074 0.09347,-0.009 0.103516,-0.0059 z"
     id="path17"
     inkscape:connector-curvature="0" /><path
     style="color:#000000;font-style:normal;font-variant:normal;font-weight:normal;font-stretch:normal;font-size:medium;line-height:normal;font-family:sans-serif;text-indent:0;text-align:start;text-decoration:none;text-decoration-line:none;text-decoration-style:solid;text-decoration-color:#000000;letter-spacing:normal;word-spacing:normal;text-transform:none;direction:ltr;block-progression:tb;writing-mode:lr-tb;baseline-shift:baseline;text-anchor:start;white-space:normal;clip-rule:nonzero;display:inline;overflow:visible;visibility:visible;opacity:1;isolation:auto;mix-blend-mode:normal;color-interpolation:sRGB;color-interpolation-filters:linearRGB;solid-color:#000000;solid-opacity:1;fill:#010101;fill-opacity:1;fill-rule:nonzero;stroke:none;stroke-width:0.23473272;stroke-linecap:butt;stroke-linejoin:miter;stroke-miterlimit:10;stroke-dasharray:none;stroke-dashoffset:0;stroke-opacity:1;color-rendering:auto;image-rendering:auto;shape-rendering:auto;text-rendering:auto;enable-background:accumulate"
     d="M 54.712891,38.474609 55.242188,38.625 c -1.047392,0.376989 -2.062844,0.827687 -3.03711,1.361328 -0.03537,0.01934 -0.08302,0.05021 -0.134766,0.09375 -0.05174,0.04354 -0.105802,0.09358 -0.140624,0.167969 -0.0882,0.188629 -0.136344,0.544164 0.160156,0.974609 l 0.002,0.002 7.263672,11.767579 c 0.0053,0.01099 0.105356,0.216796 0.257812,0.421874 0.07824,0.105248 0.167529,0.208136 0.273438,0.283204 0.105909,0.07507 0.241251,0.124752 0.376953,0.07813 0.06734,-0.0232 0.118216,-0.07558 0.146484,-0.13086 0.02827,-0.05528 0.03986,-0.115329 0.04687,-0.177734 0.01402,-0.124811 0.0036,-0.264449 -0.01563,-0.400391 -0.03852,-0.271884 -0.113281,-0.527344 -0.113281,-0.527344 l -3.742187,-12.398437 0,-0.0039 c -9.53e-4,-0.0034 -0.06296,-0.225705 -0.134766,-0.472657 -0.07236,-0.248839 -0.149012,-0.507753 -0.19336,-0.615234 -0.04309,-0.104613 -0.169336,-0.173745 -0.253906,-0.271484 l 0.773438,0.04102 -1,-0.283203 c -6.99e-4,-1.99e-4 -0.0013,1.95e-4 -0.002,0 -0.0099,-0.0028 -0.01737,0.0059 -0.02734,0.0039 l 0.002,-0.0098 -1.037109,-0.05469 z m 1,0.285157 c 0.144364,0.04112 0.258397,0.20963 0.328125,0.378906 0.02635,0.06387 0.11166,0.342461 0.183593,0.589844 0.07193,0.247382 0.134766,0.474609 0.134766,0.474609 l 0.002,0 3.742188,12.402344 c 5.21e-4,0.0018 0.07006,0.244249 0.105468,0.49414 0.01777,0.125418 0.02563,0.252741 0.01563,0.341797 -0.005,0.04453 -0.01448,0.07819 -0.02344,0.0957 -0.009,0.01751 -0.01195,0.01698 -0.01367,0.01758 -0.04328,0.01487 -0.09185,0.0024 -0.164062,-0.04883 -0.07221,-0.05118 -0.152899,-0.138586 -0.222657,-0.232421 -0.139515,-0.187671 -0.240234,-0.394532 -0.240234,-0.394532 l -0.002,-0.0059 -7.271485,-11.775391 -0.002,-0.0039 c -0.263494,-0.377882 -0.202877,-0.617128 -0.142578,-0.746094 0.0056,-0.01191 0.04107,-0.05507 0.08008,-0.08789 0.03901,-0.03282 0.08471,-0.06235 0.0957,-0.06836 0.99164,-0.543157 2.022041,-1.005919 3.089844,-1.384765 0.08754,-0.03135 0.26864,-0.05714 0.304688,-0.04687 z"
     id="path19"
     inkscape:connector-curvature="0" /><path
     style="color:#000000;font-style:normal;font-variant:normal;font-weight:normal;font-stretch:normal;font-size:medium;line-height:normal;font-family:sans-serif;text-indent:0;text-align:start;text-decoration:none;text-decoration-line:none;text-decoration-style:solid;text-decoration-color:#000000;letter-spacing:normal;word-spacing:normal;text-transform:none;direction:ltr;block-progression:tb;writing-mode:lr-tb;baseline-shift:baseline;text-anchor:start;white-space:normal;clip-rule:nonzero;display:inline;overflow:visible;visibility:visible;opacity:1;isolation:auto;mix-blend-mode:normal;color-interpolation:sRGB;color-interpolation-filters:linearRGB;solid-color:#000000;solid-opacity:1;fill:#030303;fill-opacity:1;fill-rule:nonzero;stroke:none;stroke-width:0.23473272;stroke-linecap:butt;stroke-linejoin:miter;stroke-miterlimit:10;stroke-dasharray:none;stroke-dashoffset:0;stroke-opacity:1;color-rendering:auto;image-rendering:auto;shape-rendering:auto;text-rendering:auto;enable-background:accumulate"
     d="m 61.646484,37.367188 c -0.115717,-0.004 -0.228623,0.01159 -0.296875,0.01562 -1.115401,0.06406 -2.200248,0.207058 -3.255859,0.427735 -0.07437,0.01553 -0.272678,0.0515 -0.466797,0.101562 -0.09706,0.02503 -0.194882,0.05392 -0.279297,0.08789 -0.08441,0.03397 -0.156484,0.06659 -0.21289,0.136719 -0.147868,0.18375 -0.209544,0.513365 -0.02148,1.085937 l -0.002,-0.002 3.757813,12.398438 c 0.0011,0.0041 0.111114,0.434278 0.273437,0.861328 0.08155,0.214544 0.174451,0.427624 0.279297,0.589843 0.05242,0.08111 0.107639,0.149653 0.173828,0.201172 0.06619,0.05152 0.154999,0.08633 0.246094,0.06445 0.08557,-0.02054 0.149749,-0.08055 0.193359,-0.148438 0.04361,-0.06789 0.07319,-0.146879 0.0957,-0.234375 0.04502,-0.174991 0.06191,-0.383745 0.06836,-0.589844 0.01274,-0.407224 -0.02258,-0.789434 -0.02344,-0.798828 l 0,-0.0098 0.0039,-13.384766 c 0,0 -0.06742,-0.255104 -0.13086,-0.460938 l 0.132813,0.01367 -0.19336,-0.224609 c -0.02208,-0.02558 -0.056,-0.01461 -0.08203,-0.03125 l 0.0039,-0.0078 -0.0332,-0.0039 c -0.07599,-0.03903 -0.152482,-0.08522 -0.230469,-0.08789 z m -0.0078,0.234374 c 0.0885,0.003 0.149981,0.02542 0.171875,0.05078 0.151361,0.175473 0.136719,0.496094 0.136719,0.496094 l -0.002,0.0059 -0.0039,13.416015 0.002,0.0059 c 0,0 0.03379,0.385775 0.02148,0.779297 -0.0062,0.196761 -0.02529,0.394437 -0.0625,0.539062 -0.0186,0.07231 -0.04163,0.130488 -0.06445,0.166016 -0.02282,0.03553 -0.03932,0.04608 -0.05078,0.04883 -0.0059,0.0014 -0.01438,0.0019 -0.04687,-0.02344 -0.0325,-0.0253 -0.07711,-0.07453 -0.121093,-0.142579 -0.08796,-0.136094 -0.179318,-0.340366 -0.257813,-0.546875 -0.156989,-0.413016 -0.267578,-0.839843 -0.267578,-0.839843 l 0,-0.0039 -3.757812,-12.402343 c -0.175301,-0.533728 -0.101364,-0.765498 -0.01953,-0.867188 0.0022,-0.0028 0.05032,-0.03871 0.119141,-0.06641 0.06882,-0.0277 0.158758,-0.05459 0.25,-0.07813 0.182483,-0.04706 0.369824,-0.07986 0.455078,-0.09766 1.044069,-0.218264 2.118658,-0.360426 3.222656,-0.423828 0.08421,-0.005 0.18689,-0.01866 0.275391,-0.01563 z"
     id="path21"
     inkscape:connector-curvature="0" /><path
     style="color:#000000;font-style:normal;font-variant:normal;font-weight:normal;font-stretch:normal;font-size:medium;line-height:normal;font-family:sans-serif;text-indent:0;text-align:start;text-decoration:none;text-decoration-line:none;text-decoration-style:solid;text-decoration-color:#000000;letter-spacing:normal;word-spacing:normal;text-transform:none;direction:ltr;block-progression:tb;writing-mode:lr-tb;baseline-shift:baseline;text-anchor:start;white-space:normal;clip-rule:nonzero;display:inline;overflow:visible;visibility:visible;opacity:1;isolation:auto;mix-blend-mode:normal;color-interpolation:sRGB;color-interpolation-filters:linearRGB;solid-color:#000000;solid-opacity:1;fill:#030303;fill-opacity:1;fill-rule:nonzero;stroke:none;stroke-width:0.23473272;stroke-linecap:butt;stroke-linejoin:miter;stroke-miterlimit:10;stroke-dasharray:none;stroke-dashoffset:0;stroke-opacity:1;color-rendering:auto;image-rendering:auto;shape-rendering:auto;text-rendering:auto;enable-background:accumulate"
     d="m 69.597656,38.652344 c -0.539681,0.196014 -0.707031,0.84375 -0.707031,0.84375 l -4.021484,13.335937 c -0.0037,0.0091 -0.07134,0.173555 -0.105469,0.371094 -0.01753,0.101448 -0.0254,0.209131 -0.0059,0.314453 0.01954,0.105322 0.07762,0.21748 0.191407,0.269531 0.13271,0.06068 0.273868,0.01242 0.382812,-0.0625 0.108944,-0.07492 0.205563,-0.18058 0.291016,-0.289062 0.169527,-0.215214 0.290981,-0.44161 0.292969,-0.445313 l 0.002,-0.0039 0.818359,-1.339844 6.363281,-10.423828 c 0.271475,-0.444882 0.31178,-0.735978 0.261719,-0.93164 -0.02503,-0.09783 -0.07293,-0.167855 -0.117187,-0.210938 -0.04152,-0.04042 -0.08243,-0.05799 -0.08789,-0.06055 -3.6e-4,-1.69e-4 -0.0059,-0.0039 -0.0059,-0.0039 l 0.0059,0.002 -0.01367,-0.0078 -0.128906,0.195312 0.126953,-0.197266 c -0.853749,-0.467523 -1.741815,-0.878918 -2.660156,-1.230468 -0.213425,-0.0817 -0.578442,-0.235529 -0.882813,-0.125 z m 0.08008,0.220703 c 0.16041,-0.05825 0.511075,0.04355 0.71875,0.123047 0.907805,0.347517 1.786802,0.756623 2.63086,1.21875 5.16e-4,2.82e-4 0.0014,-2.83e-4 0.002,0 l 0.02344,0.01367 0.0059,0.002 c 0,0 0.0038,3.15e-4 0.02148,0.01758 0.01773,0.01726 0.0408,0.04532 0.05469,0.09961 0.02778,0.108583 0.01695,0.336896 -0.236328,0.751953 l -6.361329,10.423829 -0.824218,1.347656 -0.002,0.0039 c 0,0 -0.116846,0.21775 -0.271485,0.414062 -0.07732,0.09816 -0.165063,0.190494 -0.240234,0.242188 -0.07517,0.05169 -0.119625,0.05793 -0.152344,0.04297 -0.03271,-0.01496 -0.04744,-0.03949 -0.05859,-0.09961 -0.01115,-0.06012 -0.007,-0.146789 0.0078,-0.232421 0.02959,-0.171266 0.09375,-0.332032 0.09375,-0.332032 l 0.002,-0.0059 4.023437,-13.341797 0,-0.002 c 0,0 0.172182,-0.545735 0.5625,-0.6875 z"
     id="path23"
     inkscape:connector-curvature="0" /><path
     style="color:#000000;font-style:normal;font-variant:normal;font-weight:normal;font-stretch:normal;font-size:medium;line-height:normal;font-family:sans-serif;text-indent:0;text-align:start;text-decoration:none;text-decoration-line:none;text-decoration-style:solid;text-decoration-color:#000000;letter-spacing:normal;word-spacing:normal;text-transform:none;direction:ltr;block-progression:tb;writing-mode:lr-tb;baseline-shift:baseline;text-anchor:start;white-space:normal;clip-rule:nonzero;display:inline;overflow:visible;visibility:visible;opacity:1;isolation:auto;mix-blend-mode:normal;color-interpolation:sRGB;color-interpolation-filters:linearRGB;solid-color:#000000;solid-opacity:1;fill:#030303;fill-opacity:1;fill-rule:nonzero;stroke:none;stroke-width:0.23473272;stroke-linecap:butt;stroke-linejoin:miter;stroke-miterlimit:10;stroke-dasharray:none;stroke-dashoffset:0;stroke-opacity:1;color-rendering:auto;image-rendering:auto;shape-rendering:auto;text-rendering:auto;enable-background:accumulate"
     d="m 74.505859,40.933594 c -0.389287,0 -0.585937,0.396484 -0.585937,0.396484 l -6.94336,11.47461 c -0.0072,0.0097 -0.252745,0.342022 -0.466796,0.720703 -0.108577,0.192084 -0.208519,0.394396 -0.261719,0.576171 -0.0266,0.09089 -0.04252,0.177557 -0.03711,0.261719 0.0054,0.08416 0.03706,0.172987 0.109374,0.230469 0.0678,0.0539 0.155108,0.07102 0.234376,0.06445 0.07927,-0.0066 0.155942,-0.03326 0.232421,-0.07031 0.152959,-0.0741 0.306874,-0.191741 0.451172,-0.316407 0.284344,-0.245658 0.516446,-0.513425 0.523438,-0.521484 l 0.0078,-0.0078 c 1.238778,-1.184613 3.565154,-3.408131 5.642578,-5.390626 2.080365,-1.985301 3.920719,-3.736275 4.138672,-3.93164 0.194217,-0.174147 0.294131,-0.343976 0.330078,-0.498047 0.03595,-0.154071 0.0053,-0.287554 -0.03711,-0.380859 -0.05595,-0.123182 -0.163253,-0.223654 -0.228516,-0.285157 -0.837185,-0.787158 -1.73588,-1.508182 -2.689453,-2.15625 -0.09434,-0.06419 -0.24771,-0.166015 -0.419922,-0.166015 z m 0,0.234375 c 0.04045,0 0.216853,0.07719 0.28711,0.125 0.943307,0.641092 1.833875,1.356024 2.662109,2.134765 0.05728,0.05398 0.154334,0.16372 0.175781,0.210938 0.02599,0.05716 0.0444,0.132262 0.02148,0.230469 -0.02291,0.09821 -0.08972,0.224276 -0.257813,0.375 -0.246346,0.220815 -2.064053,1.952091 -4.144531,3.9375 -2.080478,1.985409 -4.412921,4.215073 -5.650391,5.398437 l -0.0039,0.0039 -0.0039,0.0039 c 0,0 -0.233945,0.270939 -0.505859,0.505859 -0.135958,0.11746 -0.282768,0.225271 -0.402344,0.283203 -0.05979,0.02897 -0.111849,0.04384 -0.148438,0.04687 -0.03659,0.003 -0.05304,-0.0015 -0.06836,-0.01367 -0.01081,-0.0086 -0.01882,-0.02107 -0.02148,-0.0625 -0.0027,-0.04143 0.0054,-0.106788 0.02734,-0.18164 0.04381,-0.149705 0.136334,-0.339626 0.240235,-0.523438 0.207801,-0.367624 0.458984,-0.707031 0.458984,-0.707031 l 0.0039,-0.0039 6.949219,-11.488282 0.002,-0.002 c 0,0 0.162354,-0.273437 0.378906,-0.273437 z"
     id="path25"
     inkscape:connector-curvature="0" /><path
     style="color:#000000;font-style:normal;font-variant:normal;font-weight:normal;font-stretch:normal;font-size:medium;line-height:normal;font-family:sans-serif;text-indent:0;text-align:start;text-decoration:none;text-decoration-line:none;text-decoration-style:solid;text-decoration-color:#000000;letter-spacing:normal;word-spacing:normal;text-transform:none;direction:ltr;block-progression:tb;writing-mode:lr-tb;baseline-shift:baseline;text-anchor:start;white-space:normal;clip-rule:nonzero;display:inline;overflow:visible;visibility:visible;opacity:1;isolation:auto;mix-blend-mode:normal;color-interpolation:sRGB;color-interpolation-filters:linearRGB;solid-color:#000000;solid-opacity:1;fill:#030303;fill-opacity:1;fill-rule:nonzero;stroke:none;stroke-width:0.23473272;stroke-linecap:butt;stroke-linejoin:miter;stroke-miterlimit:10;stroke-dasharray:none;stroke-dashoffset:0;stroke-opacity:1;color-rendering:auto;image-rendering:auto;shape-rendering:auto;text-rendering:auto;enable-background:accumulate"
     d="m 78.667969,44.519531 c -0.177767,0.01326 -0.331442,0.117893 -0.451172,0.210938 -0.11973,0.09305 -0.203125,0.183593 -0.203125,0.183593 -0.0039,0.0038 -2.555865,2.469753 -5.144531,4.96875 -1.295333,1.250464 -2.599522,2.508391 -3.595703,3.466797 -0.498091,0.479203 -0.919759,0.88435 -1.22461,1.175782 -0.152425,0.145716 -0.276086,0.263378 -0.365234,0.347656 -0.08915,0.08428 -0.149282,0.140352 -0.154297,0.144531 -0.136141,0.113452 -0.260452,0.227046 -0.332031,0.363281 -0.03579,0.06812 -0.05813,0.14575 -0.05078,0.226563 0.0073,0.08081 0.04599,0.158456 0.107422,0.224609 0.07953,0.08565 0.194008,0.104202 0.292969,0.09375 0.09896,-0.01045 0.194206,-0.04425 0.28125,-0.08398 0.167893,-0.07664 0.296927,-0.170713 0.306641,-0.177735 l 0.01172,-0.0059 c 0.01118,-0.0062 2.867128,-1.595476 5.851563,-3.251953 2.99027,-1.659715 6.106286,-3.384017 6.566406,-3.625 0.50869,-0.266532 0.68502,-0.570415 0.699219,-0.822266 0.0071,-0.125925 -0.024,-0.23247 -0.05859,-0.310546 -0.03459,-0.07808 -0.08201,-0.142873 -0.07813,-0.136719 -0.601794,-0.952132 -1.276171,-1.854342 -2.013672,-2.699219 -0.03256,-0.0373 -0.08582,-0.11023 -0.15625,-0.173828 -0.07043,-0.0636 -0.166162,-0.128393 -0.289062,-0.119141 z m 0.01758,0.234375 c 0.02216,-0.0017 0.06426,0.01628 0.113281,0.06055 0.04902,0.04426 0.09693,0.104539 0.138672,0.152344 0.729579,0.835803 1.394889,1.727993 1.990234,2.669922 0.02026,0.03209 0.03871,0.05372 0.0625,0.107422 0.02379,0.0537 0.04354,0.123746 0.03906,0.203125 -0.009,0.158757 -0.108059,0.380752 -0.574219,0.625 -0.48174,0.252306 -3.581866,1.969119 -6.572266,3.628906 -2.990399,1.659787 -5.861328,3.257812 -5.861328,3.257812 l -0.0078,0.0039 -0.0059,0.0039 c 0,0 -0.130056,0.09292 -0.277343,0.160156 -0.07364,0.03362 -0.149717,0.06035 -0.207031,0.06641 -0.05732,0.0061 -0.08182,-0.0025 -0.09766,-0.01953 -0.03393,-0.03654 -0.04264,-0.0628 -0.04492,-0.08789 -0.0023,-0.02509 0.0024,-0.05562 0.02344,-0.0957 0.04212,-0.08016 0.145509,-0.18636 0.273437,-0.292968 0.028,-0.02333 0.07824,-0.06947 0.167969,-0.154297 0.08973,-0.08483 0.212638,-0.201776 0.365235,-0.347657 0.305193,-0.29176 0.726424,-0.696488 1.224609,-1.175781 0.996369,-0.958586 2.300321,-2.216285 3.595703,-3.466797 2.590764,-2.501022 5.148438,-4.974609 5.148438,-4.974609 l 0.002,-0.002 0.002,-0.002 c 0,0 0.07391,-0.07947 0.177734,-0.160157 0.103825,-0.08069 0.239206,-0.153815 0.324219,-0.160156 z"
     id="path27"
     inkscape:connector-curvature="0" /><path
     style="color:#000000;font-style:normal;font-variant:normal;font-weight:normal;font-stretch:normal;font-size:medium;line-height:normal;font-family:sans-serif;text-indent:0;text-align:start;text-decoration:none;text-decoration-line:none;text-decoration-style:solid;text-decoration-color:#000000;letter-spacing:normal;word-spacing:normal;text-transform:none;direction:ltr;block-progression:tb;writing-mode:lr-tb;baseline-shift:baseline;text-anchor:start;white-space:normal;clip-rule:nonzero;display:inline;overflow:visible;visibility:visible;opacity:1;isolation:auto;mix-blend-mode:normal;color-interpolation:sRGB;color-interpolation-filters:linearRGB;solid-color:#000000;solid-opacity:1;fill:#030303;fill-opacity:1;fill-rule:nonzero;stroke:none;stroke-width:0.23473272;stroke-linecap:butt;stroke-linejoin:miter;stroke-miterlimit:10;stroke-dasharray:none;stroke-dashoffset:0;stroke-opacity:1;color-rendering:auto;image-rendering:auto;shape-rendering:auto;text-rendering:auto;enable-background:accumulate"
     d="m 81.851562,49.214844 c -0.162964,-0.02669 -0.327574,0.01696 -0.457031,0.06055 -0.129457,0.04359 -0.224609,0.09375 -0.224609,0.09375 l -0.002,0 c 0,0 -3.074448,1.686093 -6.1875,3.390625 -1.556526,0.852266 -3.123887,1.710245 -4.320313,2.363281 -0.598213,0.326518 -1.102952,0.602293 -1.46875,0.800781 -0.365798,0.198489 -0.608575,0.327176 -0.626953,0.335938 -0.160001,0.07619 -0.307095,0.155258 -0.410156,0.269531 -0.05153,0.05714 -0.09258,0.126925 -0.105469,0.207031 -0.01288,0.08011 0.0057,0.164859 0.04883,0.244141 0.05583,0.1027 0.163238,0.149674 0.261719,0.164062 0.09848,0.01439 0.198786,0.0033 0.292969,-0.01367 0.188366,-0.0339 0.353515,-0.09961 0.353515,-0.09961 l -0.01563,0.0059 c 0,0 12.438654,-3.114119 13.470704,-3.373047 0.671437,-0.168429 0.924745,-0.434954 1.013671,-0.652343 0.05876,-0.143823 0.03482,-0.297149 0,-0.439453 -0.03482,-0.142305 -0.08818,-0.276541 -0.115234,-0.357422 -0.299033,-0.893317 -0.653196,-1.76007 -1.060547,-2.597656 -0.06655,-0.136786 -0.194085,-0.360765 -0.447266,-0.402344 z m -0.03711,0.232422 c 0.125679,0.02064 0.216187,0.15381 0.273438,0.271484 0.402948,0.828534 0.75304,1.68669 1.048828,2.570312 0.03053,0.09129 0.0794,0.215388 0.109375,0.337891 0.02998,0.122503 0.03476,0.240478 0.01172,0.296875 -0.05731,0.140111 -0.223373,0.355602 -0.853515,0.513672 -1.03103,0.258672 -13.470703,3.371094 -13.470703,3.371094 l -0.0078,0.002 -0.0059,0.0039 c 0,0 -0.149235,0.05725 -0.308594,0.08594 -0.07968,0.01434 -0.161724,0.02005 -0.21875,0.01172 -0.05702,-0.0083 -0.07871,-0.02249 -0.08984,-0.04297 -0.02382,-0.04378 -0.02548,-0.07083 -0.02148,-0.0957 0.004,-0.02487 0.01656,-0.05232 0.04687,-0.08594 0.06064,-0.06723 0.187572,-0.145222 0.337891,-0.216797 0.05923,-0.02824 0.270596,-0.143132 0.636718,-0.341797 0.366123,-0.198664 0.872402,-0.474215 1.470704,-0.800781 1.196603,-0.653133 2.761786,-1.509037 4.318359,-2.361328 3.112389,-1.704169 6.184055,-3.389807 6.185547,-3.390625 0,0 0.08148,-0.04046 0.193359,-0.07813 0.111876,-0.03767 0.252144,-0.06579 0.34375,-0.05078 z"
     id="path29"
     inkscape:connector-curvature="0" /><path
     style="color:#000000;font-style:normal;font-variant:normal;font-weight:normal;font-stretch:normal;font-size:medium;line-height:normal;font-family:sans-serif;text-indent:0;text-align:start;text-decoration:none;text-decoration-line:none;text-decoration-style:solid;text-decoration-color:#000000;letter-spacing:normal;word-spacing:normal;text-transform:none;direction:ltr;block-progression:tb;writing-mode:lr-tb;baseline-shift:baseline;text-anchor:start;white-space:normal;clip-rule:nonzero;display:inline;overflow:visible;visibility:visible;opacity:1;isolation:auto;mix-blend-mode:normal;color-interpolation:sRGB;color-interpolation-filters:linearRGB;solid-color:#000000;solid-opacity:1;fill:#030303;fill-opacity:1;fill-rule:nonzero;stroke:none;stroke-width:0.23473272;stroke-linecap:butt;stroke-linejoin:miter;stroke-miterlimit:10;stroke-dasharray:none;stroke-dashoffset:0;stroke-opacity:1;color-rendering:auto;image-rendering:auto;shape-rendering:auto;text-rendering:auto;enable-background:accumulate"
     d="m 83.605469,54.205078 c -0.308199,-0.05484 -0.628739,0.06273 -0.638672,0.06641 0,0 -3.35826,0.872411 -6.757813,1.753907 -1.699776,0.440747 -3.40849,0.883847 -4.714843,1.220703 -0.653177,0.168428 -1.206168,0.310214 -1.605469,0.412109 -0.399301,0.101895 -0.661618,0.167873 -0.681641,0.171875 -0.173747,0.0346 -0.336903,0.07462 -0.464843,0.160156 -0.06397,0.04277 -0.120199,0.101277 -0.152344,0.175782 -0.03215,0.0745 -0.03601,0.160577 -0.01367,0.248046 0.02902,0.113197 0.120961,0.184582 0.21289,0.222657 0.09193,0.03807 0.191672,0.05388 0.28711,0.06055 0.182758,0.01277 0.33751,-0.008 0.351562,-0.0098 0,0 12.934357,0.02337 13.990235,0.0332 0.331282,0.0031 0.561061,-0.05148 0.722656,-0.140625 0.161595,-0.08915 0.250671,-0.215571 0.289063,-0.328125 0.01,-0.02913 0.0053,-0.05377 0.0098,-0.08203 l 0.02539,0.02539 -0.0098,-0.162109 c -8.1e-5,-0.0035 0.0021,-0.0083 0.002,-0.01172 -0.0021,-0.06671 -0.0095,-0.127653 -0.0098,-0.132812 -0.06203,-1.099359 -0.206644,-2.176553 -0.425782,-3.226563 -0.01378,-0.06643 -0.0471,-0.154666 -0.111328,-0.246093 -0.06423,-0.09143 -0.162753,-0.18576 -0.304687,-0.210938 z m -0.04102,0.230469 c 0.05853,0.01038 0.111755,0.05468 0.154297,0.115234 0.04254,0.06056 0.0698,0.136932 0.07422,0.158203 0.216762,1.03863 0.358552,2.105718 0.419922,3.19336 0.0021,0.0378 0.0081,0.0753 0.0098,0.126953 0.0016,0.05166 -0.0028,0.109082 -0.01563,0.146484 -0.02194,0.06432 -0.06576,0.134419 -0.179687,0.197266 -0.113923,0.06285 -0.303284,0.1142 -0.607422,0.111328 -1.070343,-0.01 -13.990234,-0.03125 -13.990234,-0.03125 l -0.0078,0 -0.0078,0.002 c 0,0 -0.158822,0.0191 -0.320312,0.0078 -0.08074,-0.0056 -0.161586,-0.02091 -0.214844,-0.04297 -0.05326,-0.02206 -0.07039,-0.03996 -0.07617,-0.0625 -0.01234,-0.04832 -0.008,-0.07644 0.002,-0.09961 0.01,-0.02317 0.02877,-0.0471 0.06641,-0.07227 0.07528,-0.05033 0.217646,-0.0925 0.380859,-0.125 0.06425,-0.01284 0.295648,-0.07184 0.695313,-0.173828 0.399664,-0.101988 0.952192,-0.245609 1.605468,-0.414063 1.306553,-0.336907 3.016969,-0.777989 4.716797,-1.21875 3.399658,-0.881522 6.75586,-1.755859 6.75586,-1.755859 l 0.0059,0 0.0039,-0.002 c 0,0 0.311755,-0.09926 0.529297,-0.06055 z"
     id="path31"
     inkscape:connector-curvature="0" /><path
     style="color:#000000;font-style:normal;font-variant:normal;font-weight:normal;font-stretch:normal;font-size:medium;line-height:normal;font-family:sans-serif;text-indent:0;text-align:start;text-decoration:none;text-decoration-line:none;text-decoration-style:solid;text-decoration-color:#000000;letter-spacing:normal;word-spacing:normal;text-transform:none;direction:ltr;block-progression:tb;writing-mode:lr-tb;baseline-shift:baseline;text-anchor:start;white-space:normal;clip-rule:nonzero;display:inline;overflow:visible;visibility:visible;opacity:1;isolation:auto;mix-blend-mode:normal;color-interpolation:sRGB;color-interpolation-filters:linearRGB;solid-color:#000000;solid-opacity:1;fill:#030303;fill-opacity:1;fill-rule:nonzero;stroke:none;stroke-width:0.23473272;stroke-linecap:butt;stroke-linejoin:miter;stroke-miterlimit:10;stroke-dasharray:none;stroke-dashoffset:0;stroke-opacity:1;color-rendering:auto;image-rendering:auto;shape-rendering:auto;text-rendering:auto;enable-background:accumulate"
     d="m 83.416016,59.587891 c -1.055769,0.0099 -13.988282,0.0293 -13.988282,0.0293 l 0.01563,0.002 c 0,0 -0.176318,-0.02311 -0.367187,-0.0098 -0.09543,0.0067 -0.195187,0.02053 -0.28711,0.05859 -0.09192,0.03807 -0.183861,0.109472 -0.21289,0.222656 -0.02238,0.08747 -0.01846,0.17548 0.01367,0.25 0.03213,0.07452 0.08837,0.131061 0.152344,0.173828 0.127951,0.08553 0.291043,0.127497 0.464843,0.162109 0.02006,0.004 0.28234,0.06802 0.681641,0.169922 0.3993,0.101898 0.952293,0.245634 1.605469,0.414063 1.306352,0.336857 3.015068,0.778004 4.714843,1.21875 3.395631,0.880475 6.742269,1.751896 6.75,1.753906 0,0 0.119398,0.03949 0.271485,0.06641 0.152086,0.02692 0.338107,0.04702 0.505859,-0.01563 0.119873,-0.04471 0.191221,-0.145326 0.226563,-0.234375 0.03534,-0.08905 0.04462,-0.17447 0.05469,-0.222656 l 0.01172,-0.05469 -0.0039,-0.0039 c 0.205345,-0.992964 0.348773,-2.00924 0.414062,-3.046875 0.0081,-0.126354 0.0595,-0.354146 -0.05273,-0.554687 -0.113777,-0.202685 -0.394785,-0.384422 -0.970703,-0.378906 z m 0.002,0.234375 c 0.528722,-0.0051 0.698648,0.141977 0.763672,0.257812 0.05276,0.09428 0.03329,0.273035 0.02344,0.425781 -0.06584,1.046318 -0.206375,2.072158 -0.416016,3.072266 -0.01317,0.06307 -0.02372,0.132136 -0.04492,0.185547 -0.0212,0.05341 -0.04458,0.08468 -0.08984,0.101562 -0.08893,0.03321 -0.251152,0.0256 -0.384766,0.002 -0.133613,-0.02365 -0.236328,-0.05664 -0.236328,-0.05664 l -0.0039,-0.002 -0.0039,-0.002 c 0,0 -3.356204,-0.872388 -6.75586,-1.753907 -1.699828,-0.440759 -3.410245,-0.883794 -4.716797,-1.220703 -0.653275,-0.168454 -1.205805,-0.310119 -1.605468,-0.412109 -0.399664,-0.10199 -0.631103,-0.160989 -0.695313,-0.173828 -0.163279,-0.03252 -0.303633,-0.07663 -0.378906,-0.126953 -0.03764,-0.02516 -0.05838,-0.04912 -0.06836,-0.07227 -0.01,-0.02315 -0.01432,-0.04933 -0.002,-0.09766 0.0058,-0.0225 0.02291,-0.0424 0.07617,-0.06445 0.05326,-0.02206 0.134096,-0.03537 0.214844,-0.04102 0.161496,-0.01129 0.320312,0.0078 0.320312,0.0078 l 0.0078,0.002 0.0078,0 c 0,0 12.917609,-0.02118 13.988281,-0.03125 z"
     id="path33"
     inkscape:connector-curvature="0" /><path
     style="color:#000000;font-style:normal;font-variant:normal;font-weight:normal;font-stretch:normal;font-size:medium;line-height:normal;font-family:sans-serif;text-indent:0;text-align:start;text-decoration:none;text-decoration-line:none;text-decoration-style:solid;text-decoration-color:#000000;letter-spacing:normal;word-spacing:normal;text-transform:none;direction:ltr;block-progression:tb;writing-mode:lr-tb;baseline-shift:baseline;text-anchor:start;white-space:normal;clip-rule:nonzero;display:inline;overflow:visible;visibility:visible;opacity:1;isolation:auto;mix-blend-mode:normal;color-interpolation:sRGB;color-interpolation-filters:linearRGB;solid-color:#000000;solid-opacity:1;fill:#030303;fill-opacity:1;fill-rule:nonzero;stroke:none;stroke-width:0.23473272;stroke-linecap:butt;stroke-linejoin:miter;stroke-miterlimit:10;stroke-dasharray:none;stroke-dashoffset:0;stroke-opacity:1;color-rendering:auto;image-rendering:auto;shape-rendering:auto;text-rendering:auto;enable-background:accumulate"
     d="m 68.359375,61.162109 c -0.09847,0.01438 -0.205878,0.05943 -0.261719,0.16211 -0.04313,0.0793 -0.06171,0.165982 -0.04883,0.246093 0.01288,0.08011 0.05393,0.1499 0.105469,0.207032 0.103067,0.114263 0.250167,0.193346 0.410156,0.269531 0.0091,0.0043 0.08065,0.04224 0.1875,0.09961 0.106845,0.05737 0.256554,0.13709 0.439453,0.236328 0.365798,0.198477 0.870537,0.474273 1.46875,0.800782 1.196426,0.653017 2.763787,1.509071 4.320313,2.361328 3.11305,1.704514 6.185547,3.390625 6.185547,3.390625 0.0051,0.0032 0.09973,0.06182 0.232422,0.119141 0.136246,0.05886 0.30819,0.120428 0.482421,0.0957 0.09533,-0.01365 0.16906,-0.06505 0.214844,-0.119141 0.04578,-0.05409 0.07035,-0.109549 0.08594,-0.140625 0.0013,-0.0026 0.0026,-0.0052 0.0039,-0.0078 0.462222,-0.922561 0.860196,-1.883459 1.189453,-2.875 0.03907,-0.117679 0.177487,-0.406933 0.0918,-0.71289 -0.07262,-0.258898 -0.352727,-0.495963 -1.005859,-0.654297 -1.025281,-0.249075 -13.426281,-3.35996 -13.455079,-3.367187 l -0.01563,-0.0039 c -0.01357,-0.0053 -0.157786,-0.0633 -0.33789,-0.0957 -0.09418,-0.01694 -0.194497,-0.0261 -0.292969,-0.01172 z m 0.0332,0.232422 c 0.05703,-0.0083 0.139067,-0.0046 0.21875,0.0098 0.159367,0.02867 0.308594,0.08789 0.308594,0.08789 l 0.0059,0.002 0.0078,0.002 c 0,0 12.430354,3.120311 13.470703,3.373047 0.616308,0.149406 0.796559,0.349852 0.835937,0.490234 0.05671,0.202483 -0.03836,0.425018 -0.08789,0.574219 -0.326601,0.983543 -0.720843,1.936658 -1.179688,2.851562 -0.0015,0.003 -0.0024,0.0048 -0.0039,0.0078 -0.0171,0.03406 -0.03328,0.06526 -0.05078,0.08594 -0.01903,0.02248 -0.03432,0.03391 -0.07031,0.03906 -0.09044,0.01283 -0.239245,-0.02707 -0.357422,-0.07813 -0.118176,-0.05106 -0.205078,-0.105469 -0.205078,-0.105469 l -0.002,-0.002 -0.0039,-0.002 c 0,0 -3.074356,-1.68606 -6.1875,-3.390625 -1.556572,-0.852283 -3.121755,-1.710166 -4.318359,-2.363282 -0.598303,-0.326557 -1.10458,-0.602127 -1.470704,-0.800781 -0.183062,-0.09933 -0.332057,-0.178661 -0.439453,-0.236328 -0.107395,-0.05767 -0.167588,-0.08938 -0.197265,-0.103515 -0.150331,-0.07159 -0.277263,-0.149583 -0.337891,-0.216797 -0.03031,-0.03361 -0.04287,-0.06106 -0.04687,-0.08594 -0.004,-0.02488 -0.0023,-0.05189 0.02148,-0.0957 0.01111,-0.02044 0.03281,-0.03464 0.08984,-0.04297 z"
     id="path35"
     inkscape:connector-curvature="0" /><path
     style="color:#000000;font-style:normal;font-variant:normal;font-weight:normal;font-stretch:normal;font-size:medium;line-height:normal;font-family:sans-serif;text-indent:0;text-align:start;text-decoration:none;text-decoration-line:none;text-decoration-style:solid;text-decoration-color:#000000;letter-spacing:normal;word-spacing:normal;text-transform:none;direction:ltr;block-progression:tb;writing-mode:lr-tb;baseline-shift:baseline;text-anchor:start;white-space:normal;clip-rule:nonzero;display:inline;overflow:visible;visibility:visible;opacity:1;isolation:auto;mix-blend-mode:normal;color-interpolation:sRGB;color-interpolation-filters:linearRGB;solid-color:#000000;solid-opacity:1;fill:#030303;fill-opacity:1;fill-rule:nonzero;stroke:none;stroke-width:0.23473272;stroke-linecap:butt;stroke-linejoin:miter;stroke-miterlimit:10;stroke-dasharray:none;stroke-dashoffset:0;stroke-opacity:1;color-rendering:auto;image-rendering:auto;shape-rendering:auto;text-rendering:auto;enable-background:accumulate"
     d="m 67.546875,62.378906 c -0.09896,-0.01045 -0.21344,0.0081 -0.292969,0.09375 -0.06143,0.06615 -0.100075,0.14575 -0.107422,0.226563 -0.0073,0.08081 0.01499,0.156492 0.05078,0.224609 0.07158,0.136234 0.195886,0.251778 0.332031,0.365234 0.0058,0.0048 0.06118,0.05567 0.142578,0.132813 0.08139,0.07714 0.19403,0.183959 0.332031,0.316406 0.276002,0.264895 0.6568,0.632664 1.105469,1.066407 0.897338,0.867484 2.068866,2.003563 3.232422,3.132812 2.327112,2.258498 4.621094,4.490234 4.621094,4.490234 l -0.0059,-0.0078 c 0,0 0.08365,0.09718 0.205078,0.193359 0.121434,0.09618 0.280838,0.202157 0.466797,0.203125 0.06707,6.32e-4 0.114381,-0.02014 0.160156,-0.04102 0.04578,-0.02087 0.08457,-0.04351 0.111329,-0.06055 l 0.05469,-0.03516 0,-0.0039 c 0.946676,-0.601037 1.818768,-1.22689 2.648438,-1.853515 0.05046,-0.03808 0.136672,-0.100373 0.216796,-0.175782 0.08012,-0.07541 0.161302,-0.162446 0.189454,-0.283203 0.02583,-0.111228 0.03249,-0.276367 -0.05859,-0.453125 C 80.860091,69.733399 80.677654,69.550381 80.347656,69.375 79.423743,68.884167 68.16916,62.660977 68.146484,62.648438 l -0.01172,-0.0078 c -0.0104,-0.0075 -0.139208,-0.09935 -0.306641,-0.175781 -0.08705,-0.03974 -0.182288,-0.07549 -0.28125,-0.08594 z m -0.02344,0.234375 c 0.05732,0.0061 0.133386,0.03083 0.207031,0.06445 0.147289,0.06724 0.279297,0.160157 0.279297,0.160157 l 0.0059,0.0059 0.0059,0.002 c 0,0 11.263782,6.230035 12.216797,6.736328 0.302033,0.160519 0.443208,0.31396 0.50586,0.435547 0.06265,0.121587 0.05478,0.216877 0.03711,0.292969 -0.0083,0.03581 -0.05568,0.104457 -0.121094,0.166015 -0.06541,0.06156 -0.142916,0.117186 -0.197265,0.158204 -0.844103,0.637527 -1.725583,1.273357 -2.6875,1.880859 -0.01878,0.01196 -0.05245,0.0325 -0.08398,0.04687 -0.03153,0.01438 -0.06501,0.01949 -0.06055,0.01953 l -0.002,0 c -0.08281,-4.31e-4 -0.216578,-0.07018 -0.320312,-0.152343 -0.103734,-0.08216 -0.175782,-0.164063 -0.175782,-0.164063 l -0.0039,-0.0039 -0.002,-0.0039 c 0,0 -2.295822,-2.229674 -4.623047,-4.488281 -1.163612,-1.129303 -2.33487,-2.267074 -3.232422,-3.134765 -0.448776,-0.433846 -0.829078,-0.799186 -1.105468,-1.064454 -0.138196,-0.132633 -0.24999,-0.240601 -0.332032,-0.318359 -0.08204,-0.07776 -0.127071,-0.121843 -0.154296,-0.144531 -0.127935,-0.106614 -0.233272,-0.210855 -0.275391,-0.291016 -0.02106,-0.04008 -0.02572,-0.07061 -0.02344,-0.0957 0.0023,-0.02509 0.01099,-0.05135 0.04492,-0.08789 0.01583,-0.01705 0.04034,-0.02558 0.09766,-0.01953 z"
     id="path37"
     inkscape:connector-curvature="0" /><path
     style="color:#000000;font-style:normal;font-variant:normal;font-weight:normal;font-stretch:normal;font-size:medium;line-height:normal;font-family:sans-serif;text-indent:0;text-align:start;text-decoration:none;text-decoration-line:none;text-decoration-style:solid;text-decoration-color:#000000;letter-spacing:normal;word-spacing:normal;text-transform:none;direction:ltr;block-progression:tb;writing-mode:lr-tb;baseline-shift:baseline;text-anchor:start;white-space:normal;clip-rule:nonzero;display:inline;overflow:visible;visibility:visible;opacity:1;isolation:auto;mix-blend-mode:normal;color-interpolation:sRGB;color-interpolation-filters:linearRGB;solid-color:#000000;solid-opacity:1;fill:#030303;fill-opacity:1;fill-rule:nonzero;stroke:none;stroke-width:0.23473272;stroke-linecap:butt;stroke-linejoin:miter;stroke-miterlimit:10;stroke-dasharray:none;stroke-dashoffset:0;stroke-opacity:1;color-rendering:auto;image-rendering:auto;shape-rendering:auto;text-rendering:auto;enable-background:accumulate"
     d="m 66.208984,63.550781 c -0.0914,0.05565 -0.12363,0.161696 -0.123046,0.248047 5.83e-4,0.08635 0.02318,0.169201 0.05078,0.246094 0.05521,0.153786 0.134765,0.285156 0.134765,0.285156 l 0,0.002 0.984375,1.632813 5.277344,8.751953 c 0,0 0.150454,0.275231 0.455078,0.332031 0.104704,0.0193 0.227127,0.0088 0.353516,-0.04492 l 0.0059,-0.002 0.01953,-0.0078 c 0.02009,-0.0077 0.05007,-0.01911 0.0918,-0.03516 l 0.07617,-0.0293 0,-0.0059 c 0.912292,-0.355764 1.75925,-0.741715 2.542969,-1.154297 0.09894,-0.05198 0.287767,-0.112444 0.40625,-0.273437 0.144991,-0.197085 0.107538,-0.551909 -0.28125,-0.900391 C 76.068752,72.47523 75.410691,71.851036 74.509766,70.994141 73.60884,70.137245 72.460494,69.043884 71.330078,67.964844 69.07026,65.807731 66.882822,63.714768 66.880859,63.712891 l -0.002,-0.002 c -0.0018,-0.0018 -0.08229,-0.08147 -0.201172,-0.144532 -0.120188,-0.06376 -0.302153,-0.11717 -0.46875,-0.01563 z m 0.121094,0.201172 c 0.07083,-0.04317 0.153753,-0.02336 0.238281,0.02148 0.08453,0.04484 0.146485,0.105468 0.146485,0.105468 l 0.002,0.002 c 0,0 2.190232,2.095723 4.451172,4.253907 1.13047,1.079092 2.27857,2.174172 3.179687,3.03125 0.901118,0.857077 1.549917,1.471611 1.699219,1.605468 0.337932,0.302898 0.299056,0.516602 0.248047,0.585938 -0.05756,0.07821 -0.201635,0.139655 -0.326172,0.205078 -0.799718,0.421004 -1.658408,0.816779 -2.59375,1.177734 l -0.07422,0.0293 c -0.0045,0.0017 -0.01382,0.0044 -0.01758,0.0059 -0.01,0.0038 -0.01646,0.0059 -0.02148,0.0078 -0.005,0.0019 -0.0078,0.0039 -0.0078,0.0039 l -0.0039,0.002 c -0.0884,0.03758 -0.157639,0.04077 -0.21875,0.0293 -0.177516,-0.0331 -0.294922,-0.21875 -0.294922,-0.21875 l 0,-0.002 -5.279297,-8.753906 -0.984375,-1.632812 c 0,0 -0.07004,-0.118242 -0.115234,-0.244141 -0.0226,-0.06295 -0.03683,-0.127036 -0.03711,-0.167969 -2.76e-4,-0.04093 0.003,-0.04279 0.0098,-0.04687 z"
     id="path39"
     inkscape:connector-curvature="0" /><path
     style="color:#000000;font-style:normal;font-variant:normal;font-weight:normal;font-stretch:normal;font-size:medium;line-height:normal;font-family:sans-serif;text-indent:0;text-align:start;text-decoration:none;text-decoration-line:none;text-decoration-style:solid;text-decoration-color:#000000;letter-spacing:normal;word-spacing:normal;text-transform:none;direction:ltr;block-progression:tb;writing-mode:lr-tb;baseline-shift:baseline;text-anchor:start;white-space:normal;clip-rule:nonzero;display:inline;overflow:visible;visibility:visible;opacity:1;isolation:auto;mix-blend-mode:normal;color-interpolation:sRGB;color-interpolation-filters:linearRGB;solid-color:#000000;solid-opacity:1;fill:#030303;fill-opacity:1;fill-rule:nonzero;stroke:none;stroke-width:0.23473272;stroke-linecap:butt;stroke-linejoin:miter;stroke-miterlimit:10;stroke-dasharray:none;stroke-dashoffset:0;stroke-opacity:1;color-rendering:auto;image-rendering:auto;shape-rendering:auto;text-rendering:auto;enable-background:accumulate"
     d="m 64.927734,64.220703 c -0.126627,0.0634 -0.213626,0.193053 -0.228515,0.349609 -0.01489,0.156557 0.01793,0.345938 0.08789,0.605469 l 0.002,0 3.011719,10.197266 c 0,0 0.21422,0.745651 0.869141,0.876953 0.101122,0.02039 0.210011,0.0078 0.316406,-0.0078 0.106395,-0.01558 0.203974,-0.03722 0.25,-0.04688 0.0027,-5.74e-4 0.0051,-0.0014 0.0078,-0.002 l 0.0059,-0.002 c 0.701221,-0.147451 1.367924,-0.312807 2.001953,-0.49414 0.06391,-0.01836 0.283947,-0.05952 0.388672,-0.253907 0.100743,-0.186569 0.163771,-0.553415 -0.150391,-1.003906 l -5.050781,-8.267578 -1.037109,-1.798828 -0.0039,-0.0039 c -0.118705,-0.159726 -0.313976,-0.22661 -0.470704,-0.148438 z m 0.103516,0.210938 c 0.03867,-0.01929 0.111358,-0.01149 0.177734,0.07617 6.18e-4,8.16e-4 0.0013,-8.29e-4 0.002,0 l 1.02539,1.783204 5.058594,8.279296 0.002,0.002 c 0.273838,0.392669 0.200376,0.641875 0.136719,0.759765 -0.04081,0.07576 -0.166607,0.115835 -0.246094,0.138672 -0.632921,0.181017 -1.296893,0.347056 -1.998047,0.494141 l -0.0078,0.002 c -0.04913,0.01033 -0.137253,0.02932 -0.230469,0.04297 -0.09641,0.01412 -0.20107,0.01687 -0.236328,0.0098 -0.489406,-0.09812 -0.688889,-0.71115 -0.689453,-0.71289 l 0,-0.002 -3.011719,-10.191407 0,-0.002 c -0.06654,-0.247426 -0.09158,-0.419074 -0.08203,-0.519531 0.0096,-0.100826 0.0307,-0.125654 0.09961,-0.160156 z"
     id="path41"
     inkscape:connector-curvature="0" /><path
     style="color:#000000;font-style:normal;font-variant:normal;font-weight:normal;font-stretch:normal;font-size:medium;line-height:normal;font-family:sans-serif;text-indent:0;text-align:start;text-decoration:none;text-decoration-line:none;text-decoration-style:solid;text-decoration-color:#000000;letter-spacing:normal;word-spacing:normal;text-transform:none;direction:ltr;block-progression:tb;writing-mode:lr-tb;baseline-shift:baseline;text-anchor:start;white-space:normal;clip-rule:nonzero;display:inline;overflow:visible;visibility:visible;opacity:1;isolation:auto;mix-blend-mode:normal;color-interpolation:sRGB;color-interpolation-filters:linearRGB;solid-color:#000000;solid-opacity:1;fill:#030303;fill-opacity:1;fill-rule:nonzero;stroke:none;stroke-width:0.23473272;stroke-linecap:butt;stroke-linejoin:miter;stroke-miterlimit:10;stroke-dasharray:none;stroke-dashoffset:0;stroke-opacity:1;color-rendering:auto;image-rendering:auto;shape-rendering:auto;text-rendering:auto;enable-background:accumulate"
     d="m 63.451172,64.701172 c -0.125763,0.02358 -0.208515,0.122875 -0.251953,0.224609 -0.04344,0.101734 -0.0605,0.215374 -0.06836,0.324219 -0.01572,0.217689 0.01172,0.421875 0.01172,0.421875 l -0.002,-0.01563 0.05273,10.416016 c -8.9e-4,0.01026 -0.01311,0.141951 0.02344,0.304687 0.03795,0.168959 0.135911,0.379431 0.363281,0.470703 0.07598,0.03047 0.137837,0.02773 0.222656,0.0293 0.08417,0.0016 0.176991,-0.0022 0.253907,-0.0078 0.49294,-0.03594 1.636272,-0.122448 2.257812,-0.197266 l 0.277344,-0.0332 -0.05664,-0.04492 c 0.06871,-0.02046 0.117121,-0.01206 0.1875,-0.06641 0.104031,-0.08051 0.184677,-0.219331 0.203125,-0.416016 0.01845,-0.196685 -0.01734,-0.453077 -0.132812,-0.804687 l -2.773438,-9.964844 -0.002,-0.0098 c -0.0017,-0.009 -0.03113,-0.157836 -0.105469,-0.314453 -0.03828,-0.08064 -0.08827,-0.163311 -0.162109,-0.228516 -0.07384,-0.0652 -0.183291,-0.109553 -0.298828,-0.08789 z m 0.04297,0.230469 c 0.04097,-0.0077 0.06536,0.0012 0.101562,0.0332 0.03621,0.03197 0.07332,0.08874 0.103516,0.152344 0.06038,0.127202 0.08984,0.267578 0.08984,0.267578 l 0,0.0059 2.779297,9.986328 0.002,0.002 c 0.109244,0.33263 0.134991,0.562771 0.121094,0.710938 -0.0139,0.148167 -0.06157,0.211934 -0.113281,0.251953 -0.08915,0.06791 -0.213728,0.0867 -0.291016,0.0957 -0.608939,0.0733 -1.754314,0.161408 -2.246093,0.197266 -0.06909,0.0051 -0.158433,0.0073 -0.234375,0.0059 -0.07594,-0.0014 -0.154549,-0.01613 -0.138672,-0.0098 -0.13342,-0.05356 -0.191751,-0.175774 -0.220703,-0.304687 -0.02895,-0.128913 -0.01953,-0.244141 -0.01953,-0.244141 l 0,-0.0059 -0.05273,-10.427734 0,-0.0059 c 0,0 -0.02336,-0.188797 -0.0098,-0.376953 0.0068,-0.09408 0.02454,-0.186583 0.05078,-0.248047 0.02624,-0.06146 0.04738,-0.08017 0.07813,-0.08594 z"
     id="path43"
     inkscape:connector-curvature="0" /><path
     style="color:#000000;font-style:normal;font-variant:normal;font-weight:normal;font-stretch:normal;font-size:medium;line-height:normal;font-family:sans-serif;text-indent:0;text-align:start;text-decoration:none;text-decoration-line:none;text-decoration-style:solid;text-decoration-color:#000000;letter-spacing:normal;word-spacing:normal;text-transform:none;direction:ltr;block-progression:tb;writing-mode:lr-tb;baseline-shift:baseline;text-anchor:start;white-space:normal;clip-rule:nonzero;display:inline;overflow:visible;visibility:visible;opacity:1;isolation:auto;mix-blend-mode:normal;color-interpolation:sRGB;color-interpolation-filters:linearRGB;solid-color:#000000;solid-opacity:1;fill:#030303;fill-opacity:1;fill-rule:nonzero;stroke:none;stroke-width:0.23473272;stroke-linecap:butt;stroke-linejoin:miter;stroke-miterlimit:10;stroke-dasharray:none;stroke-dashoffset:0;stroke-opacity:1;color-rendering:auto;image-rendering:auto;shape-rendering:auto;text-rendering:auto;enable-background:accumulate"
     d="m 61.863281,64.632812 c -0.115549,-0.02167 -0.225004,0.02461 -0.298828,0.08984 -0.07382,0.06524 -0.121895,0.147844 -0.160156,0.228516 -0.07652,0.161343 -0.107422,0.322266 -0.107422,0.322266 l 0.002,-0.01172 -3.109375,10.046875 c -0.173592,0.5302 -0.141745,0.865769 -0.03125,1.076172 0.1399,0.266912 0.452617,0.303246 0.544922,0.316406 0.0029,4.2e-4 0.01511,0.0094 0.01758,0.0098 0.848622,0.126441 1.714811,0.208353 2.595703,0.236328 0.149244,0.0051 0.383814,-0.03354 0.515625,-0.07617 0.215451,-0.06946 0.302985,-0.275778 0.335938,-0.4375 0.03211,-0.157596 0.02208,-0.289812 0.02148,-0.296875 l 0,-0.0078 -0.01563,-10.539062 c 0.0018,-0.01429 0.02493,-0.196562 0.0098,-0.40625 -0.0079,-0.108874 -0.02491,-0.222466 -0.06836,-0.324219 -0.04345,-0.101753 -0.12617,-0.202985 -0.251953,-0.226563 z m -0.04297,0.230469 c 0.03074,0.0058 0.05382,0.0264 0.08008,0.08789 0.02626,0.06149 0.04202,0.153936 0.04883,0.248047 0.01361,0.188221 -0.0078,0.376953 -0.0078,0.376953 l -0.002,0.0059 0.01563,10.560547 0,0.0039 c 0,0 0.0076,0.116847 -0.01758,0.240235 -0.02514,0.123388 -0.07536,0.226763 -0.177734,0.259765 l 0,0.002 c -0.07781,0.02517 -0.352631,0.06731 -0.435547,0.06445 -0.871148,-0.02767 -1.730035,-0.109177 -2.570313,-0.234375 -0.06976,-0.01029 -0.317002,-0.07011 -0.386718,-0.203125 -0.07174,-0.136616 -0.116008,-0.400475 0.04687,-0.896485 l 3.111329,-10.052734 0.002,-0.0078 c 0,0 0.02753,-0.140316 0.08789,-0.267578 0.03018,-0.06363 0.06927,-0.120358 0.105469,-0.152343 0.0362,-0.03199 0.05865,-0.04284 0.09961,-0.03516 z"
     id="path45"
     inkscape:connector-curvature="0" /><path
     style="color:#000000;font-style:normal;font-variant:normal;font-weight:normal;font-stretch:normal;font-size:medium;line-height:normal;font-family:sans-serif;text-indent:0;text-align:start;text-decoration:none;text-decoration-line:none;text-decoration-style:solid;text-decoration-color:#000000;letter-spacing:normal;word-spacing:normal;text-transform:none;direction:ltr;block-progression:tb;writing-mode:lr-tb;baseline-shift:baseline;text-anchor:start;white-space:normal;clip-rule:nonzero;display:inline;overflow:visible;visibility:visible;opacity:1;isolation:auto;mix-blend-mode:normal;color-interpolation:sRGB;color-interpolation-filters:linearRGB;solid-color:#000000;solid-opacity:1;fill:#030303;fill-opacity:1;fill-rule:nonzero;stroke:none;stroke-width:0.23473272;stroke-linecap:butt;stroke-linejoin:miter;stroke-miterlimit:10;stroke-dasharray:none;stroke-dashoffset:0;stroke-opacity:1;color-rendering:auto;image-rendering:auto;shape-rendering:auto;text-rendering:auto;enable-background:accumulate"
     d="m 60.388672,64.154297 c -0.09788,-0.049 -0.206431,-0.01107 -0.277344,0.03906 -0.07091,0.05013 -0.127228,0.117753 -0.177734,0.185547 -0.101013,0.135589 -0.171875,0.279297 -0.171875,0.279297 l 0.0039,-0.0098 -5.939453,9.658203 c -0.301809,0.433112 -0.274943,0.792293 -0.15625,0.990234 0.09432,0.156737 0.26196,0.222502 0.365234,0.257813 0.690662,0.235407 1.404867,0.451002 2.138672,0.638671 0.0918,0.02343 0.239993,0.06077 0.400391,0.06055 0.364153,-0.0012 0.605924,-0.256895 0.746093,-0.490234 0.138452,-0.230479 0.192024,-0.451482 0.19336,-0.457031 l 0.002,-0.0039 3.011719,-10.193359 0,-0.002 c 0.06985,-0.259619 0.104731,-0.446979 0.08984,-0.603516 -0.01489,-0.156537 -0.101802,-0.286252 -0.228516,-0.349609 z m -0.105469,0.210937 c 0.06905,0.03452 0.09002,0.05937 0.09961,0.160157 0.0096,0.100787 -0.01503,0.272443 -0.08203,0.521484 l -3.011719,10.195313 -0.002,0.0039 c 0,0 -0.04902,0.198473 -0.167968,0.396484 -0.11866,0.197532 -0.290527,0.375281 -0.544922,0.376953 -0.122703,1.74e-4 -0.254553,-0.02997 -0.34375,-0.05273 -0.727395,-0.18603 -1.433803,-0.401173 -2.119141,-0.634766 -0.07935,-0.02713 -0.203753,-0.09563 -0.240234,-0.15625 -0.06242,-0.103463 -0.118226,-0.356454 0.146484,-0.736328 l 0.002,-0.002 5.949219,-9.669922 0.002,-0.0059 c 0,0 0.06555,-0.130265 0.150391,-0.244141 0.04242,-0.05694 0.09151,-0.107753 0.126953,-0.132812 0.03545,-0.02506 0.03527,-0.01948 0.03516,-0.01953 z"
     id="path47"
     inkscape:connector-curvature="0" /><path
     style="color:#000000;font-style:normal;font-variant:normal;font-weight:normal;font-stretch:normal;font-size:medium;line-height:normal;font-family:sans-serif;text-indent:0;text-align:start;text-decoration:none;text-decoration-line:none;text-decoration-style:solid;text-decoration-color:#000000;letter-spacing:normal;word-spacing:normal;text-transform:none;direction:ltr;block-progression:tb;writing-mode:lr-tb;baseline-shift:baseline;text-anchor:start;white-space:normal;clip-rule:nonzero;display:inline;overflow:visible;visibility:visible;opacity:1;isolation:auto;mix-blend-mode:normal;color-interpolation:sRGB;color-interpolation-filters:linearRGB;solid-color:#000000;solid-opacity:1;fill:#030303;fill-opacity:1;fill-rule:nonzero;stroke:none;stroke-width:0.23473272;stroke-linecap:butt;stroke-linejoin:miter;stroke-miterlimit:10;stroke-dasharray:none;stroke-dashoffset:0;stroke-opacity:1;color-rendering:auto;image-rendering:auto;shape-rendering:auto;text-rendering:auto;enable-background:accumulate"
     d="m 58.660156,63.568359 c -0.120146,0.07111 -0.195312,0.167969 -0.195312,0.167969 -0.01186,0.01109 -2.161482,2.017229 -4.392578,4.09961 -2.237247,2.08812 -4.553828,4.248161 -4.828125,4.49414 -0.349191,0.313079 -0.38027,0.621875 -0.316407,0.816406 0.02875,0.08796 0.08404,0.152542 0.136719,0.203125 0.02906,0.0279 0.05103,0.04036 0.07617,0.05859 l 0,0.01367 0.0625,0.0332 c 0.847631,0.448012 1.776129,0.894244 2.769531,1.3125 0.08064,0.03384 0.239169,0.116651 0.41211,0.0918 0.337383,-0.04871 0.507812,-0.365234 0.507812,-0.365234 l 6.179688,-10.134766 0.0098,-0.01367 c 0.0097,-0.01163 0.09254,-0.11211 0.15625,-0.255859 0.03364,-0.07589 0.06251,-0.163113 0.05859,-0.257813 -0.0039,-0.0947 -0.05153,-0.199311 -0.146484,-0.263672 -0.174278,-0.118268 -0.370088,-0.07111 -0.490235,0 z m 0.357422,0.19336 c 0.03708,0.02513 0.04334,0.04191 0.04492,0.08008 0.0016,0.03816 -0.01402,0.09583 -0.03906,0.152344 -0.05009,0.11302 -0.132813,0.214843 -0.132813,0.214843 l -0.0059,0.0059 -6.195313,10.162109 c 0,0 -0.139154,0.221308 -0.337891,0.25 -0.06086,0.0087 -0.206705,-0.03966 -0.289062,-0.07422 -0.986344,-0.415284 -1.905836,-0.861493 -2.748047,-1.30664 l -0.002,0 c -0.0046,-0.0024 -0.04756,-0.03143 -0.08398,-0.06641 -0.03643,-0.03498 -0.06909,-0.07783 -0.07813,-0.105469 -0.03848,-0.117209 -0.05024,-0.299371 0.251953,-0.570313 0.292934,-0.262691 2.59276,-2.407907 4.830078,-4.496094 2.237317,-2.088186 4.404297,-4.111328 4.404297,-4.111328 l 0.0059,-0.0059 0.0039,-0.0059 c 0,0 0.05686,-0.06717 0.134766,-0.113282 0.07791,-0.04611 0.146526,-0.07071 0.236328,-0.0098 z"
     id="path49"
     inkscape:connector-curvature="0" /><path
     style="color:#000000;font-style:normal;font-variant:normal;font-weight:normal;font-stretch:normal;font-size:medium;line-height:normal;font-family:sans-serif;text-indent:0;text-align:start;text-decoration:none;text-decoration-line:none;text-decoration-style:solid;text-decoration-color:#000000;letter-spacing:normal;word-spacing:normal;text-transform:none;direction:ltr;block-progression:tb;writing-mode:lr-tb;baseline-shift:baseline;text-anchor:start;white-space:normal;clip-rule:nonzero;display:inline;overflow:visible;visibility:visible;opacity:1;isolation:auto;mix-blend-mode:normal;color-interpolation:sRGB;color-interpolation-filters:linearRGB;solid-color:#000000;solid-opacity:1;fill:#030303;fill-opacity:1;fill-rule:nonzero;stroke:none;stroke-width:0.23473272;stroke-linecap:butt;stroke-linejoin:miter;stroke-miterlimit:10;stroke-dasharray:none;stroke-dashoffset:0;stroke-opacity:1;color-rendering:auto;image-rendering:auto;shape-rendering:auto;text-rendering:auto;enable-background:accumulate"
     d="m 57.833984,62.378906 c -0.09896,0.01045 -0.194205,0.0462 -0.28125,0.08594 -0.174088,0.07947 -0.318359,0.183593 -0.318359,0.183594 -0.02553,0.01382 -11.269731,6.098929 -12.201172,6.59375 -0.301213,0.160086 -0.483574,0.31863 -0.587891,0.474609 -0.104316,0.155978 -0.124276,0.310992 -0.109374,0.431641 0.03482,0.281587 0.265273,0.42124 0.345703,0.480468 0.630915,0.464407 1.566577,1.114925 2.74414,1.822266 0.09962,0.05973 0.238048,0.134766 0.390625,0.134766 0.190798,-10e-7 0.354651,-0.09663 0.47461,-0.185547 0.119959,-0.08892 0.199218,-0.179688 0.199218,-0.179688 l -0.0059,0.0078 c 0,0 2.277293,-2.18209 4.587891,-4.390625 1.155299,-1.104268 2.319784,-2.215697 3.210937,-3.064453 0.445577,-0.424379 0.823444,-0.783522 1.097656,-1.042969 0.137106,-0.129724 0.247188,-0.232884 0.328125,-0.308594 0.08094,-0.07571 0.137534,-0.126982 0.144532,-0.132813 0.13614,-0.113451 0.260451,-0.227048 0.332031,-0.363281 0.03579,-0.06812 0.05813,-0.14575 0.05078,-0.226562 -0.0073,-0.08081 -0.04599,-0.16041 -0.107422,-0.226563 -0.07953,-0.08565 -0.19596,-0.104201 -0.294922,-0.09375 z m 0.02539,0.234375 c 0.05731,-0.0061 0.08182,0.0025 0.09766,0.01953 0.03393,0.03654 0.04264,0.0628 0.04492,0.08789 0.0023,0.02509 -0.0043,0.05562 -0.02539,0.0957 -0.04212,0.08016 -0.145508,0.18636 -0.273437,0.292969 -0.02601,0.02168 -0.07277,0.06436 -0.154297,0.140625 -0.08153,0.07626 -0.192794,0.180655 -0.330078,0.310547 -0.274568,0.259784 -0.651982,0.618497 -1.097656,1.042969 -0.89135,0.848943 -2.055587,1.960136 -3.210938,3.064453 -2.310701,2.208634 -4.58789,4.390625 -4.58789,4.390625 l -0.0039,0.002 -0.002,0.0039 c 0,0 -0.06626,0.07255 -0.166015,0.146485 -0.09975,0.07394 -0.229488,0.140624 -0.333985,0.140624 -0.05586,0 -0.191309,-0.05349 -0.271484,-0.101562 -1.170235,-0.702939 -2.098765,-1.34792 -2.72461,-1.808594 -0.100314,-0.07387 -0.231129,-0.153853 -0.251953,-0.322265 -0.0094,-0.07605 -0.0023,-0.161969 0.07227,-0.273438 0.07455,-0.111469 0.223024,-0.248241 0.501953,-0.396484 0.945364,-0.502218 12.216797,-6.601563 12.216797,-6.601563 l 0.0078,-0.0039 0.0059,-0.0039 c 0,0 0.130057,-0.09487 0.277344,-0.16211 0.07364,-0.03362 0.15167,-0.0584 0.208984,-0.06445 z"
     id="path51"
     inkscape:connector-curvature="0" /><path
     style="color:#000000;font-style:normal;font-variant:normal;font-weight:normal;font-stretch:normal;font-size:medium;line-height:normal;font-family:sans-serif;text-indent:0;text-align:start;text-decoration:none;text-decoration-line:none;text-decoration-style:solid;text-decoration-color:#000000;letter-spacing:normal;word-spacing:normal;text-transform:none;direction:ltr;block-progression:tb;writing-mode:lr-tb;baseline-shift:baseline;text-anchor:start;white-space:normal;clip-rule:nonzero;display:inline;overflow:visible;visibility:visible;opacity:1;isolation:auto;mix-blend-mode:normal;color-interpolation:sRGB;color-interpolation-filters:linearRGB;solid-color:#000000;solid-opacity:1;fill:#030303;fill-opacity:1;fill-rule:nonzero;stroke:none;stroke-width:0.23473272;stroke-linecap:butt;stroke-linejoin:miter;stroke-miterlimit:10;stroke-dasharray:none;stroke-dashoffset:0;stroke-opacity:1;color-rendering:auto;image-rendering:auto;shape-rendering:auto;text-rendering:auto;enable-background:accumulate"
     d="m 56.957031,61.095703 c -0.09846,-0.01437 -0.200764,-0.0052 -0.294922,0.01172 -0.188315,0.03387 -0.351562,0.09961 -0.351562,0.09961 -0.01349,0.0033 -3.191469,0.784551 -6.509766,1.611328 C 48.138117,63.232624 46.443485,63.657921 45.101562,64 43.75964,64.342079 42.782069,64.596111 42.511719,64.685547 42.179847,64.795329 42.08421,64.965515 42.001953,65.125 l -0.136719,-0.40625 0.0059,0.519531 0.002,0.240235 0.0039,0.01563 c 2.47e-4,8.08e-4 0.0017,0.0011 0.002,0.002 0.003,0.0099 0.0067,0.01939 0.0098,0.0293 l 0.01563,0.04687 0.002,0 c 0.0015,0.0048 0.0044,0.0089 0.0059,0.01367 4.4e-5,8.3e-5 0,0.0059 0,0.0059 l 0.002,0 c 0.305818,0.985494 0.665735,1.947389 1.080079,2.876953 0.06343,0.142254 0.15606,0.396116 0.376953,0.501953 0.192214,0.09208 0.411467,0.03126 0.589844,-0.0293 0.178376,-0.06056 0.320312,-0.138672 0.320312,-0.138672 0,0 3.041242,-1.669557 6.121094,-3.357422 1.539926,-0.843932 3.089474,-1.691106 4.273437,-2.33789 0.591982,-0.323392 1.092924,-0.596305 1.455078,-0.792969 0.362155,-0.196664 0.600651,-0.325165 0.619141,-0.333984 0.160081,-0.07614 0.30901,-0.155238 0.412109,-0.269531 0.05155,-0.05715 0.09064,-0.126905 0.103516,-0.207032 0.01288,-0.08013 -0.0037,-0.166811 -0.04687,-0.246094 -0.05589,-0.102625 -0.163262,-0.147736 -0.261719,-0.162109 z m -0.03516,0.232422 c 0.05704,0.0083 0.07872,0.02253 0.08984,0.04297 0.02384,0.04377 0.02743,0.07084 0.02344,0.0957 -0.004,0.02487 -0.0185,0.05232 -0.04883,0.08594 -0.06065,0.06724 -0.187531,0.145284 -0.33789,0.216797 -0.05909,0.02818 -0.268376,0.141048 -0.63086,0.337891 -0.362483,0.196843 -0.863006,0.469527 -1.455078,0.792969 -1.184144,0.646883 -2.733464,1.495885 -4.273438,2.339843 -3.079946,1.687916 -6.121093,3.357422 -6.121093,3.357422 0,0 -0.126411,0.06786 -0.283203,0.121094 -0.156793,0.05323 -0.338254,0.07444 -0.41211,0.03906 -0.08825,-0.04228 -0.200342,-0.242739 -0.263672,-0.384765 -0.418068,-0.93792 -0.783814,-1.906356 -1.089843,-2.900391 -3.4e-5,-6.7e-5 4.1e-5,-0.0019 0,-0.002 -0.0039,-0.0078 -0.04128,-0.07647 -0.01758,-0.179687 0.02498,-0.108781 0.11305,-0.260626 0.482422,-0.382813 0.234326,-0.07752 1.235012,-0.339756 2.576172,-0.681641 1.341161,-0.341884 3.034823,-0.767431 4.697266,-1.18164 3.324885,-0.828419 6.523437,-1.615234 6.523437,-1.615234 l 0.0078,0 0.0078,-0.0039 c 0,0 0.149272,-0.05728 0.308594,-0.08594 0.07966,-0.01433 0.159759,-0.02004 0.216797,-0.01172 z"
     id="path53"
     inkscape:connector-curvature="0" /><path
     style="color:#000000;font-style:normal;font-variant:normal;font-weight:normal;font-stretch:normal;font-size:medium;line-height:normal;font-family:sans-serif;text-indent:0;text-align:start;text-decoration:none;text-decoration-line:none;text-decoration-style:solid;text-decoration-color:#000000;letter-spacing:normal;word-spacing:normal;text-transform:none;direction:ltr;block-progression:tb;writing-mode:lr-tb;baseline-shift:baseline;text-anchor:start;white-space:normal;clip-rule:nonzero;display:inline;overflow:visible;visibility:visible;opacity:1;isolation:auto;mix-blend-mode:normal;color-interpolation:sRGB;color-interpolation-filters:linearRGB;solid-color:#000000;solid-opacity:1;fill:#030303;fill-opacity:1;fill-rule:nonzero;stroke:none;stroke-width:0.23473272;stroke-linecap:butt;stroke-linejoin:miter;stroke-miterlimit:10;stroke-dasharray:none;stroke-dashoffset:0;stroke-opacity:1;color-rendering:auto;image-rendering:auto;shape-rendering:auto;text-rendering:auto;enable-background:accumulate"
     d="m 63.96875,37.380859 c -0.06348,-0.0037 -0.154544,-0.0017 -0.246094,0.0098 -0.09155,0.01144 -0.180244,0.01956 -0.261718,0.08984 -0.293545,0.253148 -0.208985,0.695312 -0.208985,0.695312 l -0.105469,13.388672 c -8.55e-4,0.0095 -0.036,0.388694 -0.01758,0.787109 0.0093,0.201679 0.03184,0.40563 0.08398,0.574219 0.02607,0.08429 0.05859,0.160949 0.109375,0.22461 0.05079,0.06366 0.12616,0.114653 0.214843,0.123047 0.08667,0.0082 0.169829,-0.02364 0.234375,-0.07227 0.06455,-0.04863 0.116605,-0.113352 0.164063,-0.1875 0.09492,-0.148296 0.170222,-0.338096 0.234375,-0.533203 0.06415,-0.195107 0.115607,-0.396019 0.154297,-0.558594 0.03869,-0.162575 0.06739,-0.294402 0.07617,-0.326172 l 3.402343,-12.298828 0.002,-0.0039 c 0.09563,-0.304983 0.13606,-0.526654 0.140624,-0.699219 0.0046,-0.173586 -0.03137,-0.302997 -0.08398,-0.402344 -0.138844,-0.262331 -0.419187,-0.329092 -0.523437,-0.351562 -1.095092,-0.237899 -2.21963,-0.39253 -3.369141,-0.458985 z m -0.01367,0.234375 c 1.137249,0.06575 2.250756,0.219757 3.333984,0.455078 0.08875,0.01913 0.282019,0.07519 0.365235,0.232422 0.03658,0.06907 0.06035,0.144877 0.05664,0.285157 -0.0037,0.140279 -0.03986,0.343222 -0.132813,0.638671 l 0,0.002 -3.404297,12.304687 c -0.01622,0.05866 -0.04026,0.174888 -0.07813,0.333985 -0.03786,0.159096 -0.08754,0.353843 -0.148437,0.539062 -0.0609,0.185219 -0.133397,0.362371 -0.208985,0.480469 -0.03779,0.05905 -0.07592,0.103225 -0.107422,0.126953 -0.0315,0.02373 -0.05053,0.02726 -0.07031,0.02539 -0.01777,-0.0017 -0.03164,-0.0063 -0.05469,-0.03516 -0.02304,-0.02888 -0.0477,-0.08164 -0.06836,-0.148437 -0.04132,-0.133594 -0.06538,-0.324468 -0.07422,-0.515625 -0.01768,-0.382314 0.01758,-0.763672 0.01758,-0.763672 l 0,-0.0059 0.105469,-13.419921 -0.002,-0.0078 c 0,0 -0.02962,-0.345983 0.130859,-0.484375 -0.0058,0.005 0.06264,-0.0259 0.136719,-0.03516 0.07408,-0.0093 0.158158,-0.01042 0.203125,-0.0078 z"
     id="path55"
     inkscape:connector-curvature="0" /><path
     stroke-miterlimit="10"
     d="M 67.06377,66.303901"
     id="path57"
     inkscape:connector-curvature="0"
     style="fill:none;stroke:#010101;stroke-width:0.05868318;stroke-miterlimit:10" /><path
     stroke-miterlimit="10"
     d="M 64.01295,76.777201"
     id="path63"
     inkscape:connector-curvature="0"
     style="fill:none;stroke:#030303;stroke-width:0.23473272;stroke-miterlimit:10" /></svg>