<?xml version="1.0" encoding="utf-8"?>
<!-- Generator: Adobe Illustrator 18.1.1, SVG Export Plug-In . SVG Version: 6.00 Build 0)  -->
<svg version="1.1"
	 id="svg2" xmlns:cc="http://creativecommons.org/ns#" xmlns:inkscape="http://www.inkscape.org/namespaces/inkscape" xmlns:rdf="http://www.w3.org/1999/02/22-rdf-syntax-ns#" xmlns:dc="http://purl.org/dc/elements/1.1/" xmlns:svg="http://www.w3.org/2000/svg" xmlns:sodipodi="http://sodipodi.sourceforge.net/DTD/sodipodi-0.dtd" inkscape:version="0.91 r13725" sodipodi:docname="parts drawing-1.svg"
	 xmlns="http://www.w3.org/2000/svg" xmlns:xlink="http://www.w3.org/1999/xlink" x="0px" y="0px" viewBox="0 0 595.3 841.9"
	 enable-background="new 0 0 595.3 841.9" xml:space="preserve">
<sodipodi:namedview  id="base" inkscape:zoom="5.6" bordercolor="#666666" showgrid="false" pagecolor="#ffffff" inkscape:cy="943.89177" inkscape:cx="265.52989" borderopacity="1.0" inkscape:document-units="px" inkscape:pageshadow="2" inkscape:window-height="855" inkscape:window-y="0" inkscape:pageopacity="0.0" inkscape:window-width="1440" inkscape:window-maximized="0" inkscape:current-layer="layer1" inkscape:window-x="76">
	</sodipodi:namedview>
<g id="g3022" transform="translate(604.95751,-1037.5205)" inkscape:label="0">
	<path id="path3024" inkscape:connector-curvature="0" fill="none" stroke="#000000" d="M-296.1,1130.1v-7.8h4.6v7.8
		C-291.6,1130.1-296.1,1130.1-296.1,1130.1z"/>
</g>
<g id="g3077" transform="translate(418.42558,-865.98115)" inkscape:label="0">
	<path id="path3079" inkscape:connector-curvature="0" fill="none" stroke="#000000" d="M-102.7,996h-41.8v-6.9h41.9L-102.7,996
		L-102.7,996z"/>
</g>
<path id="path3134" inkscape:connector-curvature="0" fill="none" stroke="#000000" d="M144,149c2.1,0,3.8-1.7,3.8-3.8
	c0-2.1-1.7-3.8-3.8-3.8l0,0c-2.1,0-3.8,1.7-3.8,3.8C140.2,147.3,141.9,149,144,149L144,149z"/>
<path id="path3144" inkscape:connector-curvature="0" fill="none" stroke="#000000" d="M144,170.7c2.1,0,3.8-1.7,3.8-3.8
	c0-2.1-1.7-3.8-3.8-3.8l0,0c-2.1,0-3.8,1.7-3.8,3.8C140.2,169,141.9,170.7,144,170.7z"/>
<path id="path3150_1_" inkscape:connector-curvature="0" fill="none" stroke="#000000" d="M114,156.4v-18.1h35.4
	c3.4,11.5,3.5,23.8,0.2,35.4h-35.8l0.1-35.4h35.4c1.8,5.8,2.7,11.9,2.6,18v-0.2"/>
<g id="g3360" transform="translate(117.38282,-895.22554)" inkscape:label="0">
	<path id="path3362" inkscape:connector-curvature="0" fill="none" stroke="#000000" d="M21.9,951.7H-2.6v-24.4h24.5V951.7z"/>
</g>
<g id="g3549" transform="translate(296.13688,-932.86376)" inkscape:label="0">
	<path id="path3551" inkscape:connector-curvature="0" fill="none" stroke="#000000" d="M-33.7,948.3v-1.1h-19.8v1.1H-33.7z"/>
	<path id="path3553" inkscape:connector-curvature="0" fill="none" stroke="#000000" d="M-75,947.1v1.1h19.8v-1.1H-75z"/>
	<path id="path3555" inkscape:connector-curvature="0" fill="none" stroke="#000000" d="M-10.4,947.1c0.4,0.4,0.8,0.8,1.3,1.1"/>
	<path id="path3557" inkscape:connector-curvature="0" fill="none" stroke="#000000" d="M-9,948.3h-1.3"/>
	<path id="path3559" inkscape:connector-curvature="0" fill="none" stroke="#000000" d="M-10.4,948.3v-1.1"/>
	<path id="path3561" inkscape:connector-curvature="0" fill="none" stroke="#000000" d="M-76.8,947.1v1.1"/>
	<path id="path3563" inkscape:connector-curvature="0" fill="none" stroke="#000000" d="M-76.8,948.2h-1.4"/>
	<path id="path3565" inkscape:connector-curvature="0" fill="none" stroke="#000000" d="M-78.1,948.2c0.4-0.4,0.7-0.7,1-1.1"/>
	<path id="path3567" inkscape:connector-curvature="0" fill="none" stroke="#000000" d="M-77.2,947.1h0.4"/>
	<path id="path3569" inkscape:connector-curvature="0" fill="none" stroke="#000000" d="M-12.1,948.3v-1.1H-32v1.1H-12.1z"/>
	<path id="path3571" inkscape:connector-curvature="0" fill="none" stroke="#000000" d="M-86.4,950.2h5.1"/>
	<path id="path3573" inkscape:connector-curvature="0" fill="none" stroke="#000000" d="M-81.3,950.2c0.6-0.4,1.2-0.8,1.7-1.1"/>
	<path id="path3575" inkscape:connector-curvature="0" fill="none" stroke="#000000" d="M-79.6,949.1h2.8"/>
	<path id="path3577" inkscape:connector-curvature="0" fill="none" stroke="#000000" d="M-76.8,949.1v1.1"/>
	<path id="path3579" inkscape:connector-curvature="0" fill="none" stroke="#000000" d="M-76.8,950.2h1.7"/>
	<path id="path3581" inkscape:connector-curvature="0" fill="none" stroke="#000000" d="M-75,950.2v-1.1"/>
	<path id="path3583" inkscape:connector-curvature="0" fill="none" stroke="#000000" d="M-75,949.1h19.8"/>
	<path id="path3585" inkscape:connector-curvature="0" fill="none" stroke="#000000" d="M-55.2,949.1v1.1"/>
	<path id="path3587" inkscape:connector-curvature="0" fill="none" stroke="#000000" d="M-55.2,950.2h1.7"/>
	<path id="path3589" inkscape:connector-curvature="0" fill="none" stroke="#000000" d="M-53.5,950.2v-1.1"/>
	<path id="path3591" inkscape:connector-curvature="0" fill="none" stroke="#000000" d="M-53.5,949.1h19.8"/>
	<path id="path3593" inkscape:connector-curvature="0" fill="none" stroke="#000000" d="M-33.7,949.1v1.1"/>
	<path id="path3595" inkscape:connector-curvature="0" fill="none" stroke="#000000" d="M-33.7,950.2h1.7"/>
	<path id="path3597" inkscape:connector-curvature="0" fill="none" stroke="#000000" d="M-32,950.2v-1.1"/>
	<path id="path3599" inkscape:connector-curvature="0" fill="none" stroke="#000000" d="M-32,949.1h19.8"/>
	<path id="path3601" inkscape:connector-curvature="0" fill="none" stroke="#000000" d="M-12.1,949.1v1.1"/>
	<path id="path3603" inkscape:connector-curvature="0" fill="none" stroke="#000000" d="M-12.1,950.2h1.8"/>
	<path id="path3605" inkscape:connector-curvature="0" fill="none" stroke="#000000" d="M-10.4,950.2v-1.1"/>
	<path id="path3607" inkscape:connector-curvature="0" fill="none" stroke="#000000" d="M-10.4,949.1h2.5"/>
	<path id="path3609" inkscape:connector-curvature="0" fill="none" stroke="#000000" d="M-7.9,949.1c0.8,0.5,1.5,0.9,2,1.1"/>
	<path id="path3611" inkscape:connector-curvature="0" fill="none" stroke="#000000" d="M-5.9,950.2h5.1"/>
	<path id="path3613" inkscape:connector-curvature="0" fill="none" stroke="#000000" d="M-0.8,950.2c-3.3-0.9-6-2.2-8.4-4"/>
	<path id="path3615" inkscape:connector-curvature="0" fill="none" stroke="#000000" d="M-9.2,946.3h-68.7"/>
	<path id="path3617" inkscape:connector-curvature="0" fill="none" stroke="#000000" d="M-77.9,946.3c-1.9,1.5-4.7,2.8-8.5,4"/>
</g>
<g id="g3703" transform="translate(298.75745,-952.72704)" inkscape:label="0">
	<path id="path3713" inkscape:connector-curvature="0" fill="none" stroke="#000000" d="M131.6,1002.2c0.1,0,0.6,0,1-0.1
		c0.2-0.1,0.5-0.2,0.8-0.3c0.3-0.2,0.6-0.4,0.7-0.7c0.2-0.2,0.2-0.4,0.4-0.7c0.1-0.2,0.1-0.6,0.1-0.8c-0.2-0.5-0.3-0.8-0.6-1
		c-0.2-0.3-0.5-0.6-0.6-0.6c0,0-0.1-0.1-0.2-0.1l0,0c-0.5-0.3-2.6-1-4.6-1.4c-2.7-0.6-4.6-0.8-6.7-0.8c-5,0.1-7.8,1.2-10.5,2.2
		c-0.1,0-0.5,0.3-0.8,0.6c-0.2,0.2-0.3,0.3-0.5,0.6c-0.1,0.2-0.2,0.5-0.2,0.8c0,0.2,0,0.6,0.1,0.8c0.1,0.3,0.2,0.6,0.4,0.8
		c0.2,0.2,0.4,0.4,0.7,0.6c0.4,0.2,0.8,0.3,1.3,0.4C112.5,1002.2,131.6,1002.2,131.6,1002.2z"/>
	<path id="path3717" inkscape:connector-curvature="0" fill="none" stroke="#000000" d="M56.2,1002.2c-1.3-0.2-2.2-1.4-1.9-2.6
		c0.2-1,1-1.8,1.9-1.9h3c1.3,0.3,2.1,1.6,1.8,2.9c-0.2,0.9-0.9,1.5-1.8,1.8L56.2,1002.2L56.2,1002.2z"/>
</g>
<path id="path3835" inkscape:connector-curvature="0" fill="none" stroke="#000000" d="M168.2,124.8c-0.6,0.3-1.2,0.6-1.9,0.9h48.6
	h-0.1v-0.1h-0.2c-1.5-0.8-2.5-1.8-3-3.3h0.1c-2.7-11.6-14.2-18.8-25.8-16.1c-8.1,1.8-14.3,8.1-16.2,16.1c-0.2,0.6-0.5,1.2-0.8,1.8
	C168.8,124.3,168.6,124.6,168.2,124.8"/>
<path id="path3957" inkscape:connector-curvature="0" fill="none" stroke="#000000" d="M237.8,77.6c-0.8-0.5-1.8-0.8-2.7-0.9h-27
	c-0.6,0-1.1,0.2-1.5,0.5c-0.4,0.3-0.6,0.6-0.7,1v1.3H195v-0.1v-0.6c-0.1-0.4-0.2-0.8-0.4-1c-0.4-0.5-1-0.8-1.8-1h-72.5v0.1
	c-0.7,0-1.4,0.2-2.2,0.8c-0.3,0.2-0.8,0.4-1.4,0.5h-2.1v-6.9l0,0v0.6h155v-0.3l0,0v6.3c-0.6,0.2-1,0.6-1.2,0.9v8.4H263v0.1v-4.6
	c-0.2-1.2-0.5-2.2-1-2.9h0.1c-0.7,0-1.4,0.2-2.2,0.8c-1.9,1.7-3.6,3.4-4.9,5.4v1.3h-11.5V86v0.1C240.7,81.2,238.7,78.4,237.8,77.6"
	/>
<g id="g4253" transform="translate(568.63227,-1037.5205)" inkscape:label="0">
	<path id="path4255" inkscape:connector-curvature="0" fill="none" stroke="#000000" d="M-259.8,1089.8v-7.8h4.6v7.8
		C-255.3,1089.8-259.8,1089.8-259.8,1089.8z"/>
</g>
<g id="g4308" transform="translate(418.27763,-842.9612)" inkscape:label="0">
	<path id="path4310" inkscape:connector-curvature="0" fill="none" stroke="#000000" d="M-102.7,991.4h-41.8v-6.9h41.9L-102.7,991.4
		L-102.7,991.4z"/>
</g>
<g id="g4363" transform="translate(496.69498,-864.97098)" inkscape:label="0">
	<path id="path4365" inkscape:connector-curvature="0" fill="none" stroke="#000000" d="M-43.5,953.4h-41.8v-6.9h41.9L-43.5,953.4
		L-43.5,953.4z"/>
</g>
<g id="g4418" transform="translate(496.04196,-842.45613)" inkscape:label="0">
	<path id="path4420" inkscape:connector-curvature="0" fill="none" stroke="#000000" d="M-43.4,948.9h-41.8V942h41.9L-43.4,948.9
		L-43.4,948.9z"/>
</g>
<g id="g4473" transform="translate(288.01273,-924.96823)" inkscape:label="0">
	<path id="path4475" inkscape:connector-curvature="0" fill="none" stroke="#000000" d="M-10.1,1001h28.9"/>
	<path id="path4477" inkscape:connector-curvature="0" fill="none" stroke="#000000" d="M18.8,1001v-17.2"/>
	<path id="path4479" inkscape:connector-curvature="0" fill="none" stroke="#000000" d="M18.8,983.8h-1.4"/>
	<path id="path4483" inkscape:connector-curvature="0" fill="none" stroke="#000000" d="M11.8,967.3v-2"/>
	<path id="path4485" inkscape:connector-curvature="0" fill="none" stroke="#000000" d="M11.8,965.3H-2.3"/>
	<path id="path4487" inkscape:connector-curvature="0" fill="none" stroke="#000000" d="M-2.3,965.3v18.6"/>
	<path id="path4489" inkscape:connector-curvature="0" fill="none" stroke="#000000" d="M-2.3,983.8h-7.8"/>
	<path id="path4491" inkscape:connector-curvature="0" fill="none" stroke="#000000" d="M-10.1,983.8v17.2"/>
</g>
<path id="path4564" inkscape:connector-curvature="0" fill="none" stroke="#000000" d="M152.1,23.8v0.8h35.5v-0.8
	c-1.6-0.8-2.8-2.2-3.5-4h-24.4h0.1C157.8,21.4,155.3,22.8,152.1,23.8"/>
<path id="path4640_2_" inkscape:connector-curvature="0" fill="none" stroke="#000000" d="M429.8,151.1L429.8,151.1l1.2-3.9h0.9"/>
<path id="path4640_1_" inkscape:connector-curvature="0" fill="none" stroke="#000000" d="M322.3,174.5h107.5l-0.1,0.2v-23.6
	c0-1.8,0.8-3.1,2-3.9c0.2,0,0.2-0.1,0.2-0.2c0-0.1-0.1-0.2-0.2-0.2v0.1h-99.6h0.2c-4.2,0.3-7.4,1.8-9.6,4.6v-0.2v23.3"/>
<path id="path4769" inkscape:connector-curvature="0" fill="none" stroke="#000000" d="M220.7,28.1H219v-2h-2.8
	c-0.5,0.3-1,0.7-1.7,1.1h-5.1v0.1c3.8-1.2,6.6-2.5,8.5-4h68.7v-0.1c2.4,1.8,5.1,3.1,8.4,4h-5.1c-0.5-0.2-1.2-0.6-2-1.1h-2.5v2h-1.8
	v-2h-19.8v2h-1.7v-2h-19.8v2h-1.7v-2h-19.8L220.7,28.1"/>
<path id="path4871" inkscape:connector-curvature="0" fill="none" stroke="#000000" d="M113.2,124.8c-0.6,0.3-1.2,0.6-1.9,0.9h48.6
	h-0.1v-0.1h-0.2c-1.5-0.8-2.5-1.8-3-3.3h0.1c-2.7-11.6-14.2-18.8-25.8-16.1c-8.1,1.8-14.3,8.1-16.2,16.1c-0.2,0.6-0.5,1.2-0.8,1.8
	C113.8,124.3,113.6,124.6,113.2,124.8"/>
<g id="g5211" transform="translate(267.63035,-810.17494)" inkscape:label="0">
	<g>
		<path id="path5213" inkscape:connector-curvature="0" fill="none" stroke="#000000" d="M1.3,1011.6L1.3,1011.6"/>
		<path id="path5215_2_" inkscape:connector-curvature="0" fill="none" stroke="#000000" d="M1.1,1011.5"/>
		<path id="path5215_1_" inkscape:connector-curvature="0" fill="none" stroke="#000000" d="M1.3,1011.5"/>
		<path id="path5217" inkscape:connector-curvature="0" fill="none" stroke="#000000" d="M2.7,1011.5c-0.7-0.1-3.3-0.8-3.8-3.3"/>
		<path id="path5223_1_" inkscape:connector-curvature="0" fill="none" stroke="#000000" d="M-44.7,1010.1"/>
		<path id="path5225_2_" inkscape:connector-curvature="0" fill="none" stroke="#000000" d="M-47.3,1011.6"/>
		<path id="path5227_2_" inkscape:connector-curvature="0" fill="none" stroke="#000000" d="M1.3,1011.6"/>
	</g>
	<path id="path5227_1_" inkscape:connector-curvature="0" fill="none" stroke="#000000" d="M-47.3,1012.4"/>
</g>
<path id="path5773_1_" inkscape:connector-curvature="0" fill="none" stroke="#000000" d="M268.8,300.9l19.3,0.1H269h-48.6
	c0.8-0.4,1.5-0.6,2-0.9c0.3-0.3,0.6-0.6,0.7-0.7c0.4-0.6,0.6-1.2,0.8-1.8c1.8-8,8.1-14.2,16.1-16.1c2.7-0.5,6.1-0.5,6.1-0.5"/>
<g id="g5962" transform="translate(571.77851,-997.07596)" inkscape:label="0">
	<path id="path5964" inkscape:connector-curvature="0" fill="none" stroke="#000000" d="M-164.8,1072.8h-39v-16.5h39V1072.8z"/>
</g>
<g id="g6017" transform="matrix(-1,0,0,-1,184.36024,1013.6128)" inkscape:label="0">
	<path id="path6019" inkscape:connector-curvature="0" fill="none" stroke="#000000" d="M45.1,986.3h24.5v9.3H45.1V986.3z"/>
</g>
<g id="g6072" transform="translate(63.170356,-897.3205)" inkscape:label="0">
	<path id="path6074" inkscape:connector-curvature="0" fill="none" stroke="#000000" d="M38.2,1044.6v-67.1H2.8v67.1H38.2z"/>
	<path id="path6076" inkscape:connector-curvature="0" fill="none" stroke="#000000" d="M41.5,1070.4h-42v-155h41.9L41.5,1070.4
		L41.5,1070.4z"/>
</g>
<g id="g6130" transform="translate(551.08887,-932.04825)" inkscape:label="0">
	<path id="path6132" inkscape:connector-curvature="0" fill="none" stroke="#000000" d="M-99.8,996.6h-15.5v-5.8h15.5V996.6z"/>
</g>
<g id="g6185" transform="translate(521.79444,-932.04825)" inkscape:label="0">
	<path id="path6187" inkscape:connector-curvature="0" fill="none" stroke="#000000" d="M-93.9,996.6h-15.5v-5.8h15.5V996.6z"/>
</g>
<g id="g6240" transform="matrix(0,1,-1,0,1146.2175,80.579238)" inkscape:label="0">
	<path id="path6242" inkscape:connector-curvature="0" fill="none" stroke="#000000" d="M-24.1,1003.5h-24.5v-5.1h24.5
		C-24.1,998.4-24.1,1003.5-24.1,1003.5z"/>
</g>
<path id="path6352" inkscape:connector-curvature="0" fill="none" stroke="#000000" d="M313.9,224v5.4h-160V224H313.9z"/>
<g id="g6405" transform="translate(571.19912,-789.82152)" inkscape:label="0">
	<path id="path6407" inkscape:connector-curvature="0" fill="none" stroke="#000000" d="M-191.3,880.3v5.4h11.3v-5.5
		C-183.4,877.9-187.9,877.9-191.3,880.3L-191.3,880.3z"/>
	<path id="path6409" inkscape:connector-curvature="0" fill="none" stroke="#000000" d="M-167.9,896.4h-35.4v-23.3h35.4V896.4
		L-167.9,896.4z"/>
</g>
<path id="path6475" inkscape:connector-curvature="0" fill="none" stroke="#000000" d="M358.6,106.4h-35.4v0.1V78.8
	c-0.2-0.9-0.8-1.5-1.5-2h38.6c-0.8,0.5-1.4,1.2-1.6,2v-0.1L358.6,106.4"/>
<g id="g6533" transform="translate(638.97512,-1092.5333)" inkscape:label="0">
	<path id="path6535" inkscape:connector-curvature="0" fill="none" stroke="#000000" d="M-172.4,1159.1v101.4h28.3v-101.4H-172.4z"
		/>
	<path id="path6537" inkscape:connector-curvature="0" fill="none" stroke="#000000" d="M-179.2,1148.3h41.9v116.4h-41.9
		L-179.2,1148.3L-179.2,1148.3z"/>
</g>
<path id="path4933_1_" inkscape:connector-curvature="0" fill="none" stroke="#000000" d="M314,201.7L314,201.7"/>
<path id="path4935_1_" inkscape:connector-curvature="0" fill="none" stroke="#000000" d="M314,201.7v0.3"/>
<path id="path4937_3_" inkscape:connector-curvature="0" fill="none" stroke="#000000" d="M159,202"/>
<path id="path4937_2_" inkscape:connector-curvature="0" fill="none" stroke="#000000" d="M314,202"/>
<path id="path4939_1_" inkscape:connector-curvature="0" fill="none" stroke="#000000" d="M159,202v-0.6"/>
<path id="path4941_1_" inkscape:connector-curvature="0" fill="none" stroke="#000000" d="M159,201.4L159,201.4"/>
<path id="path4943_1_" inkscape:connector-curvature="0" fill="none" stroke="#000000" d="M158.9,201v7.6"/>
<path id="path4945_1_" inkscape:connector-curvature="0" fill="none" stroke="#000000" d="M158.9,208.3h2.1"/>
<path id="path4947_1_" inkscape:connector-curvature="0" fill="none" stroke="#000000" d="M160.7,208.3c0.8-0.2,2.4-0.8,1.6-0.5"/>
<path id="path4949_1_" inkscape:connector-curvature="0" fill="none" stroke="#000000" d="M162.4,207.8c0.8-0.6,1.5-0.8,2.2-0.8"/>
<path id="path4951_1_" inkscape:connector-curvature="0" fill="none" stroke="#000000" d="M164.3,207h72.8"/>
<path id="path4953_1_" inkscape:connector-curvature="0" fill="none" stroke="#000000" d="M236.8,207c2.2,0.6,2.4,2.1,2.8,2.6"/>
<path id="path4955_3_" inkscape:connector-curvature="0" fill="none" stroke="#000000" d="M239.3,209"/>
<path id="path4955_2_" inkscape:connector-curvature="0" fill="none" stroke="#000000" d="M238.9,208"/>
<path id="path4957_3_" inkscape:connector-curvature="0" fill="none" stroke="#000000" d="M239.2,209.6"/>
<path id="path4957_2_" inkscape:connector-curvature="0" fill="none" stroke="#000000" d="M239.2,209"/>
<path id="path4959_1_" inkscape:connector-curvature="0" fill="none" stroke="#000000" d="M239.2,209.6H250"/>
<path id="path4961_1_" inkscape:connector-curvature="0" fill="none" stroke="#000000" d="M250,210v-1.6"/>
<path id="path4963_1_" inkscape:connector-curvature="0" fill="none" stroke="#000000" d="M250,208.6c0.1-0.3,0.4-0.9,1-1.4"/>
<path id="path4965_1_" inkscape:connector-curvature="0" fill="none" stroke="#000000" d="M250.8,207.4c0.4-0.3,1-0.5,1.5-0.5"/>
<path id="path4967_1_" inkscape:connector-curvature="0" fill="none" stroke="#000000" d="M252.3,206.9h27"/>
<path id="path4969_1_" inkscape:connector-curvature="0" fill="none" stroke="#000000" d="M279.3,206.9c1,0.1,1.9,0.4,2.7,0.9"/>
<path id="path4971_1_" inkscape:connector-curvature="0" fill="none" stroke="#000000" d="M282,207.8c1,0.7,2.9,3.6,5.7,8.4"/>
<path id="path4973_1_" inkscape:connector-curvature="0" fill="none" stroke="#000000" d="M287.7,216.1v1.3"/>
<path id="path4975_1_" inkscape:connector-curvature="0" fill="none" stroke="#000000" d="M287.7,217.3h11.5"/>
<path id="path4977_1_" inkscape:connector-curvature="0" fill="none" stroke="#000000" d="M299.2,217.3V216"/>
<path id="path4979_1_" inkscape:connector-curvature="0" fill="none" stroke="#000000" d="M299.2,216.2c1.3-1.9,3.4-4.1,5.3-5.8"/>
<path id="path4981_1_" inkscape:connector-curvature="0" fill="none" stroke="#000000" d="M304.1,210.7c0.8-0.6,1.5-0.8,2.2-0.8"/>
<path id="path4983_1_" inkscape:connector-curvature="0" fill="none" stroke="#000000" d="M306.4,209.9c0.5,0.7,0.8,1.7,1,2.9"/>
<path id="path4985_1_" inkscape:connector-curvature="0" fill="none" stroke="#000000" d="M307.2,212.3v5.1"/>
<path id="path4987_1_" inkscape:connector-curvature="0" fill="none" stroke="#000000" d="M307.2,217.3h5.7"/>
<path id="path4989_1_" inkscape:connector-curvature="0" fill="none" stroke="#000000" d="M312.8,217.3v-8.4"/>
<path id="path4991_1_" inkscape:connector-curvature="0" fill="none" stroke="#000000" d="M312.8,209.2c0.2-0.3,0.6-0.9,1.2-1.1"/>
<path id="path4993_1_" inkscape:connector-curvature="0" fill="none" stroke="#000000" d="M314,208.1v-6.7"/>
<path id="path3713_1_" inkscape:connector-curvature="0" fill="none" stroke="#000000" d="M394.2,49.3h-19.5h0.2
	c-0.5-0.1-0.9-0.2-1.3-0.4c-0.3-0.2-0.6-0.4-0.7-0.6c-0.2-0.2-0.3-0.5-0.4-0.8c-0.1-0.2-0.1-0.6-0.1-0.8c0-0.3,0.1-0.6,0.2-0.8
	s0.2-0.4,0.5-0.6c0.3-0.2,0.7-0.6,0.8-0.6c2.6-1,5.5-2.1,10.5-2.2c2.1-0.1,4,0.2,6.7,0.8c1.9,0.5,4.1,1.1,4.6,1.4l-0.2-0.1l0.2,0.1
	c0,0,0.1,0.1,0.2,0.1c0.2,0.1,0.4,0.3,0.6,0.6c0.2,0.2,0.4,0.7,0.6,1.2v-0.2c0,0.3,0,0.6-0.1,0.8c-0.1,0.3-0.2,0.6-0.4,0.7
	c-0.2,0.2-0.4,0.5-0.7,0.7c-0.2,0.2-0.6,0.2-0.8,0.3c-0.5,0.1-1,0.1-1,0.1L394.2,49.3z"/>
<path fill="none" stroke="#000000" d="M459.8,43.2c-8.5,0-15.4,3.9-15.4,8.8H358c-0.6,0.2-1,0.5-1.3,1h-11v-7.7
	c-0.3-0.9-0.9-1.4-1.8-1.8v-6.7h115.8C459.8,36.8,459.8,43.2,459.8,43.2z"/>
<path fill="none" stroke="#000000" d="M299.8,42.1c-5.7,10.3,2.5,16.6,5.5,16.6"/>
<line fill="none" stroke="#000000" x1="158.9" y1="201.4" x2="219.2" y2="201.5"/>
<line fill="none" stroke="#000000" x1="270.2" y1="201.3" x2="313.9" y2="201.3"/>
<g id="g3703_1_" transform="translate(298.75745,-952.72704)" inkscape:label="0">
	<path id="path3713_3_" inkscape:connector-curvature="0" fill="none" stroke="#000000" d="M-60.9,1005.7c0.1,0,0.6,0,1-0.1
		c0.2-0.1,0.5-0.2,0.8-0.3c0.3-0.2,0.6-0.4,0.7-0.7c0.2-0.2,0.2-0.4,0.4-0.7c0.1-0.2,0.1-0.6,0.1-0.8c-0.2-0.5-0.3-0.8-0.6-1
		c-0.2-0.3-0.5-0.6-0.6-0.6c0,0-0.1-0.1-0.2-0.1l0,0c-0.5-0.3-2.6-1-4.6-1.4c-2.7-0.6-4.6-0.8-6.7-0.8c-5,0.1-7.8,1.2-10.5,2.2
		c-0.1,0-0.5,0.3-0.8,0.6c-0.2,0.2-0.3,0.3-0.5,0.6c-0.1,0.2-0.2,0.5-0.2,0.8c0,0.2,0,0.6,0.1,0.8c0.1,0.3,0.2,0.6,0.4,0.8
		c0.2,0.2,0.4,0.4,0.7,0.6c0.4,0.2,0.8,0.3,1.3,0.4C-80,1005.7-60.9,1005.7-60.9,1005.7z"/>
	<path id="path3717_1_" inkscape:connector-curvature="0" fill="none" stroke="#000000" d="M-136.3,1005.7c-1.3-0.2-2.2-1.4-1.9-2.6
		c0.2-1,1-1.8,1.9-1.9h3c1.3,0.3,2.1,1.6,1.8,2.9c-0.2,0.9-0.9,1.5-1.8,1.8L-136.3,1005.7L-136.3,1005.7z"/>
</g>
<path id="path3713_2_" inkscape:connector-curvature="0" fill="none" stroke="#000000" d="M201.7,52.8h-19.5h0.2
	c-0.5-0.1-0.9-0.2-1.3-0.4c-0.3-0.2-0.6-0.4-0.7-0.6c-0.2-0.2-0.3-0.5-0.4-0.8c-0.1-0.2-0.1-0.6-0.1-0.8c0-0.3,0.1-0.6,0.2-0.8
	c0.1-0.2,0.2-0.4,0.5-0.6c0.3-0.2,0.7-0.6,0.8-0.6c2.6-1,5.5-2.1,10.5-2.2c2.1-0.1,4,0.2,6.7,0.8c1.9,0.5,4.1,1.1,4.6,1.4l-0.2-0.1
	l0.2,0.1c0.1,0,0.1,0.1,0.2,0.1c0.2,0.1,0.4,0.3,0.6,0.6c0.2,0.2,0.4,0.7,0.6,1.2v-0.2c0,0.3,0,0.6-0.1,0.8
	c-0.1,0.3-0.2,0.6-0.4,0.7c-0.2,0.2-0.4,0.5-0.7,0.7c-0.2,0.2-0.6,0.2-0.8,0.3c-0.5,0.1-1,0.1-1,0.1L201.7,52.8z"/>
<path fill="none" stroke="#000000" d="M267.3,46.7c-8.5,0-15.4,3.9-15.4,8.8h-86.4c-0.6,0.2-1,0.5-1.3,1h-11v-7.7
	c-0.3-0.9-0.9-1.4-1.8-1.8v-6.7h115.8C267.3,40.3,267.3,46.7,267.3,46.7z"/>
<path id="path3957_1_" inkscape:connector-curvature="0" fill="none" stroke="#000000" d="M237.1,98.4c-0.8-0.5-1.8-0.8-2.7-0.9h-27
	c-0.6,0-1.1,0.2-1.5,0.5c-0.4,0.3-0.6,0.6-0.7,1v1.3h-10.8v-0.1v-0.6c-0.1-0.4-0.2-0.8-0.4-1c-0.4-0.5-1-0.8-1.8-1h-72.5v0.1
	c-0.7,0-1.4,0.2-2.2,0.8c-0.3,0.2-0.8,0.4-1.4,0.5H114v-6.9l0,0v0.6h155v-0.3l0,0v6.3c-0.6,0.2-1,0.6-1.2,0.9v8.4h-5.5v0.1v-4.6
	c-0.2-1.2-0.5-2.2-1-2.9h0.1c-0.7,0-1.4,0.2-2.2,0.8c-1.9,1.7-3.6,3.4-4.9,5.4v1.3h-11.5v-1.3v0.1C240,102,238.1,99.2,237.1,98.4"/>
<path id="path4564_1_" inkscape:connector-curvature="0" fill="none" stroke="#000000" d="M152.1,33.6v0.8h35.5v-0.8
	c-1.6-0.8-2.8-2.2-3.5-4h-24.4h0.1C157.8,31.3,155.3,32.6,152.1,33.6"/>
<g id="g4473_1_" transform="translate(288.01273,-924.96823)" inkscape:label="0">
	<path id="path4475_1_" inkscape:connector-curvature="0" fill="none" stroke="#000000" d="M-8.1,1043h28.9"/>
	<path id="path4477_1_" inkscape:connector-curvature="0" fill="none" stroke="#000000" d="M20.8,1043v-17.2"/>
	<path id="path4479_1_" inkscape:connector-curvature="0" fill="none" stroke="#000000" d="M20.8,1025.8h-1.4"/>
	<path id="path4483_1_" inkscape:connector-curvature="0" fill="none" stroke="#000000" d="M13.8,1009.3v-2"/>
	<path id="path4485_1_" inkscape:connector-curvature="0" fill="none" stroke="#000000" d="M13.8,1007.3H-0.3"/>
	<path id="path4487_1_" inkscape:connector-curvature="0" fill="none" stroke="#000000" d="M-0.3,1007.3v18.6"/>
	<path id="path4489_1_" inkscape:connector-curvature="0" fill="none" stroke="#000000" d="M-0.3,1025.8h-7.8"/>
	<path id="path4491_1_" inkscape:connector-curvature="0" fill="none" stroke="#000000" d="M-8.1,1025.8v17.2"/>
</g>
<path fill="none" stroke="#000000" d="M301.8,84.1c-5.7,10.3,2.5,16.6,5.5,16.6"/>
<path id="path4640_4_" inkscape:connector-curvature="0" fill="none" stroke="#000000" d="M429.8,117.9L429.8,117.9l1.2-3.9h0.9"/>
<path id="path4640_3_" inkscape:connector-curvature="0" fill="none" stroke="#000000" d="M322.3,141.3h107.5l-0.1,0.2v-23.6
	c0-1.8,0.8-3.1,2-3.9c0.2,0,0.2-0.1,0.2-0.2c0-0.2-0.1-0.2-0.2-0.2v0.1h-99.6h0.2c-4.2,0.3-7.4,1.8-9.6,4.6V118v23.3"/>
<path fill="none" stroke="#000000" d="M222.8,198.2c1.9-16.3,22.3-24,35.2-14.6c4.7,3.4,7.8,8.8,8.5,14.6"/>
<path id="path5217_1_" inkscape:connector-curvature="0" fill="none" stroke="#000000" d="M222.9,198c-0.5,2.5-3.2,3.4-3.9,3.5"/>
<g id="g6072_1_" transform="translate(63.170356,-897.3205)" inkscape:label="0">
	<path id="path6074_1_" inkscape:connector-curvature="0" fill="none" stroke="#000000" d="M223.9,1134.4h-69.6v35.4h69.6V1134.4z"
		/>
	<path id="path6076_1_" inkscape:connector-curvature="0" fill="none" stroke="#000000" d="M250.7,1131.1v42H84.6v-42H250.7
		L250.7,1131.1z"/>
</g>
<line fill="none" stroke="#000000" x1="245.4" y1="280.9" x2="245.4" y2="280.9"/>
<line fill="none" stroke="#000000" x1="245.4" y1="280.9" x2="288.1" y2="280.9"/>
<line fill="none" stroke="#000000" x1="288.1" y1="280.9" x2="288.1" y2="301"/>
<line fill="none" stroke="#000000" x1="288.1" y1="301" x2="267.6" y2="301"/>
</svg>
