<?xml version="1.0" encoding="utf-8"?>
<!-- Generator: Adobe Illustrator 18.1.1, SVG Export Plug-In . SVG Version: 6.00 Build 0)  -->
<svg version="1.1"
	 id="svg2" xmlns:dc="http://purl.org/dc/elements/1.1/" xmlns:rdf="http://www.w3.org/1999/02/22-rdf-syntax-ns#" xmlns:svg="http://www.w3.org/2000/svg" xmlns:inkscape="http://www.inkscape.org/namespaces/inkscape" xmlns:cc="http://creativecommons.org/ns#" xmlns:sodipodi="http://sodipodi.sourceforge.net/DTD/sodipodi-0.dtd" sodipodi:docname="parts drawing-1.svg" inkscape:version="0.91 r13725"
	 xmlns="http://www.w3.org/2000/svg" xmlns:xlink="http://www.w3.org/1999/xlink" x="0px" y="0px" viewBox="0 0 595.3 841.9"
	 enable-background="new 0 0 595.3 841.9" xml:space="preserve">
<sodipodi:namedview  pagecolor="#ffffff" id="base" inkscape:zoom="5.6" bordercolor="#666666" borderopacity="1.0" showgrid="false" inkscape:cy="943.89177" inkscape:cx="265.52989" inkscape:window-x="76" inkscape:window-y="0" inkscape:window-height="855" inkscape:window-maximized="0" inkscape:window-width="1440" inkscape:pageshadow="2" inkscape:document-units="px" inkscape:pageopacity="0.0" inkscape:current-layer="layer1">
	</sodipodi:namedview>
<g id="LWPOLYLINE">
	
		<path fill="none" stroke="#000000" stroke-width="0.709" stroke-linecap="round" stroke-linejoin="round" stroke-miterlimit="10" d="
		M257.3,625.6v-2.7c0-0.7-0.7-1.3-1.4-1.3c0,0-0.1,0-0.1,0v1.4h-14.1v-1.4h-76.1c-1.9,0.1-3.5,1.6-3.7,3.5v1.7h-11.6V625
		c-1.9-5.2-7.1-8.4-12.6-7.7l-9.4,0l0-2.4h0.1v-5.1H165"/>
	
		<path fill="none" stroke="#000000" stroke-width="0.709" stroke-linecap="round" stroke-linejoin="round" stroke-miterlimit="10" d="
		M257.6,609.2c1,0.4,2,0.7,3.1,0.8c0,0,7.7,0,7.7,0v4.6h0.6v2.3c-0.3,0.1-0.5,0.3-0.5,0.7v9.4h-11.1v-1.5"/>
	
		<path fill="none" stroke="#000000" stroke-width="0.709" stroke-linecap="round" stroke-linejoin="round" stroke-miterlimit="10" d="
		M249.1,606.5c2.5,0.1,4.9,0.8,7,2"/>
	
		<path fill="none" stroke="#000000" stroke-width="0.709" stroke-linecap="round" stroke-linejoin="round" stroke-miterlimit="10" d="
		M241.2,608.3c2.2-1.2,4.6-1.8,7.1-1.8"/>
	
		<path fill="none" stroke="#000000" stroke-width="0.709" stroke-linecap="round" stroke-linejoin="round" stroke-miterlimit="10" d="
		M241.3,609.4"/>
	
		<path fill="none" stroke="#000000" stroke-width="0.709" stroke-linecap="round" stroke-linejoin="round" stroke-miterlimit="10" d="
		M210,608.7c1.2,0.5,2.4,0.9,3.7,1.1h22.6c1.2-0.2,2.4-0.5,3.6-0.9"/>
	
		<path fill="none" stroke="#000000" stroke-width="0.709" stroke-linecap="round" stroke-linejoin="round" stroke-miterlimit="10" d="
		M208.5,607.9"/>
	
		<path fill="none" stroke="#000000" stroke-width="0.709" stroke-linecap="round" stroke-linejoin="round" stroke-miterlimit="10" d="
		M200.7,606.2"/>
	
		<path fill="none" stroke="#000000" stroke-width="0.709" stroke-linecap="round" stroke-linejoin="round" stroke-miterlimit="10" d="
		M193.6,608.4"/>
	
		<path fill="none" stroke="#000000" stroke-width="0.709" stroke-linecap="round" stroke-linejoin="round" stroke-miterlimit="10" d="
		M164.8,609.8h21.2c2.1,0,4.2-0.3,6.1-0.9"/>
</g>
<g id="LWPOLYLINE_2_">
	
		<path fill="none" stroke="#000000" stroke-width="0.709" stroke-linecap="round" stroke-linejoin="round" stroke-miterlimit="10" d="
		M210.6,620c-0.3,0-0.5-0.1-0.7-0.2c-0.9-0.4-1.3-1.5-0.9-2.4c1.9-1.7,4.2-2.8,6.7-3.1c0,0,18,0,18,0c2.6,0.1,5,1.2,6.7,3.1
		c0.1,0.3,0.1,0.5,0.1,0.8c-0.1,1.1-1.1,1.9-2.2,1.7H210.6z"/>
</g>
<g id="LWPOLYLINE_3_">
	
		<path fill="none" stroke="#000000" stroke-width="0.709" stroke-linecap="round" stroke-linejoin="round" stroke-miterlimit="10" d="
		M163.9,617.5c1.3-1.5,3-2.6,5-3.1h18.2c2.2,0.2,4.2,1.3,5.5,3.1c0.1,0.2,0.2,0.5,0.2,0.8c0,1-0.8,1.7-1.7,1.7h-26.1
		C164.1,619.7,163.6,618.5,163.9,617.5z"/>
</g>
<path fill="none" stroke="#000000" stroke-width="0.709" stroke-linecap="round" stroke-linejoin="round" stroke-miterlimit="10" d="
	M213.5,609.8c-1.3-0.2-2.7-0.6-3.9-1.2c-4.9-3.3-11.2-3.4-16.2-0.2c-2.4,0.9-4.9,1.4-7.5,1.4"/>
<path fill="none" stroke="#000000" stroke-width="0.709" stroke-linecap="round" stroke-linejoin="round" stroke-miterlimit="10" d="
	M260.9,610.1c-1.3-0.2-2.8-0.5-3.9-1.2c-4.9-3.1-11.3-3.3-16.3-0.4c-2.2,1.3-4.8,1.3-7.4,1.3"/>
<path id="path3134_1_" inkscape:connector-curvature="0" fill="none" stroke="#000000" d="M305.5,554.9c2.1,0,3.8-1.7,3.8-3.8
	s-1.7-3.8-3.8-3.8l0,0c-2.1,0-3.8,1.7-3.8,3.8S303.4,554.9,305.5,554.9L305.5,554.9z"/>
<path id="path3144_1_" inkscape:connector-curvature="0" fill="none" stroke="#000000" d="M305.5,576.6c2.1,0,3.8-1.7,3.8-3.8
	c0-2.1-1.7-3.8-3.8-3.8l0,0c-2.1,0-3.8,1.7-3.8,3.8C301.7,574.9,303.4,576.6,305.5,576.6z"/>
<path id="path3150_2_" inkscape:connector-curvature="0" fill="none" stroke="#000000" d="M275.5,562.3v-18.1h35.4
	c3.4,11.5,3.5,23.8,0.2,35.4h-35.8l0.1-35.4h35.4c1.8,5.8,2.7,11.9,2.6,18V562"/>
<g id="g3360_1_" transform="translate(117.38282,-895.22554)" inkscape:label="0">
	<path id="path3362_1_" inkscape:connector-curvature="0" fill="none" stroke="#000000" d="M220.3,1475.3h-17.5v-40.6h17.5V1475.3z"
		/>
</g>
<path id="path6352_1_" inkscape:connector-curvature="0" fill="none" stroke="#000000" d="M292.4,535.2v5.4h-160v-5.4H292.4z"/>
<g id="LWPOLYLINE_21_">
	
		<path fill="none" stroke="#000000" stroke-width="0.709" stroke-linecap="round" stroke-linejoin="round" stroke-miterlimit="10" d="
		M188.5,564.1h-6.3c1.5,0,3-0.7,4-1.9c1.9-4.1,5.2-7.3,9.2-9.2c9.7-4.6,21.3-0.5,25.9,9.2c0.6,1.2,1.9,2,3.2,2h-8.5
		c-1.3-0.2-2.7-0.6-3.9-1.2c-4.9-3.3-11.2-3.4-16.2-0.2C193.6,563.6,191,564.1,188.5,564.1z"/>
</g>
<g id="LWPOLYLINE_20_">
	
		<path fill="none" stroke="#000000" stroke-width="0.709" stroke-linecap="round" stroke-linejoin="round" stroke-miterlimit="10" d="
		M258.3,596.4v-2.7c0-0.7-0.7-1.3-1.4-1.3c0,0-0.1,0-0.1,0v1.4h-14.1v-1.4h-76.1c-1.9,0.1-3.5,1.6-3.7,3.5v1.7h-11.6v-1.7
		c-1.9-5.2-7.1-8.4-12.6-7.7l-9.4,0l0-2.4h0.1v-5.1h36.7"/>
	
		<path fill="none" stroke="#000000" stroke-width="0.709" stroke-linecap="round" stroke-linejoin="round" stroke-miterlimit="10" d="
		M269.3,580.9v4.6h0.6v2.3c-0.3,0.1-0.5,0.3-0.5,0.7v9.4h-11.1v-1.5"/>
	
		<path fill="none" stroke="#000000" stroke-width="0.709" stroke-linecap="round" stroke-linejoin="round" stroke-miterlimit="10" d="
		M165.8,580.6h15.3"/>
</g>
<g id="LWPOLYLINE_19_">
	
		<path fill="none" stroke="#000000" stroke-width="0.709" stroke-linecap="round" stroke-linejoin="round" stroke-miterlimit="10" d="
		M211.6,590.9c-0.3,0-0.5-0.1-0.7-0.2c-0.9-0.4-1.3-1.5-0.9-2.4c1.9-1.7,4.2-2.8,6.7-3.1c0,0,18,0,18,0c2.6,0.1,5,1.2,6.7,3.1
		c0.1,0.3,0.1,0.5,0.1,0.8c-0.1,1.1-1.1,1.9-2.2,1.7H211.6z"/>
</g>
<g id="LWPOLYLINE_18_">
	
		<path fill="none" stroke="#000000" stroke-width="0.709" stroke-linecap="round" stroke-linejoin="round" stroke-miterlimit="10" d="
		M164.9,588.3c1.3-1.5,3-2.6,5-3.1h18.2c2.2,0.2,4.2,1.3,5.5,3.1c0.1,0.2,0.2,0.5,0.2,0.8c0,1-0.8,1.7-1.7,1.7h-26.1
		C165.1,590.5,164.6,589.4,164.9,588.3z"/>
</g>
<g id="LWPOLYLINE_17_">
	
		<path fill="none" stroke="#000000" stroke-width="0.709" stroke-linecap="round" stroke-linejoin="round" stroke-miterlimit="10" d="
		M269.5,580.6"/>
	
		<path fill="none" stroke="#000000" stroke-width="0.709" stroke-linecap="round" stroke-linejoin="round" stroke-miterlimit="10" d="
		M227.2,580.6h-3.8"/>
</g>
<g id="LWPOLYLINE_16_">
	
		<path fill="none" stroke="#000000" stroke-width="0.709" stroke-linecap="round" stroke-linejoin="round" stroke-miterlimit="10" d="
		M215,580.6"/>
	
		<path fill="none" stroke="#000000" stroke-width="0.709" stroke-linecap="round" stroke-linejoin="round" stroke-miterlimit="10" d="
		M181.1,580.6c1.5,0,3-0.7,4-1.9c1.9-4.1,5.2-7.3,9.2-9.2c9.7-4.6,21.3-0.5,25.9,9.2c0.6,1.2,1.9,2,3.2,2"/>
</g>
<path fill="none" stroke="#000000" stroke-width="0.709" stroke-linecap="round" stroke-linejoin="round" stroke-miterlimit="10" d="
	M269.3,580.9"/>
<g id="LWPOLYLINE_15_">
	
		<path fill="none" stroke="#000000" stroke-width="0.709" stroke-linecap="round" stroke-linejoin="round" stroke-miterlimit="10" d="
		M138.9,564.2h-6.3c1.5,0,3-0.7,4-1.9c1.9-4.1,5.2-7.3,9.2-9.2c9.7-4.6,21.3-0.5,25.9,9.2c0.6,1.2,1.9,2,3.2,2h-8.5
		c-1.3-0.2-2.7-0.6-3.9-1.2c-4.9-3.3-11.2-3.4-16.2-0.2C144,563.7,141.4,564.2,138.9,564.2z"/>
</g>
<g id="LWPOLYLINE_13_">
	
		<path fill="none" stroke="#000000" stroke-width="0.709" stroke-linecap="round" stroke-linejoin="round" stroke-miterlimit="10" d="
		M307.4,651h-33.8c1.5,0,3-0.7,4-1.9c1.9-4.1,5.2-7.3,9.2-9.2c9.7-4.6,21.3-0.5,25.9,9.2c0.6,1.2,1.9,2,3.2,2H307.4"/>
</g>
<g id="LWPOLYLINE_12_">
	
		<path fill="none" stroke="#000000" stroke-width="0.709" stroke-linecap="round" stroke-linejoin="round" stroke-miterlimit="10" d="
		M289.9,595.2v33.8c0-1.5-0.7-3-1.9-4c-4.1-1.9-7.3-5.2-9.2-9.2c-4.6-9.7-0.5-21.3,9.2-25.9c1.2-0.6,2-1.9,2-3.2V595.2"/>
</g>
<g id="LWPOLYLINE_25_">
	
		<path fill="none" stroke="#000000" stroke-width="0.709" stroke-linecap="round" stroke-linejoin="round" stroke-miterlimit="10" d="
		M257.6,650v-2.7c0-0.7-0.7-1.3-1.4-1.3c0,0-0.1,0-0.1,0v1.4H242V646h-76.1c-1.9,0.1-3.5,1.6-3.7,3.5v1.7h-11.6v-1.7
		c-1.9-5.2-7.1-8.4-12.6-7.7l-9.4,0l0-2.4h0.1v-5.1h36.7"/>
	
		<path fill="none" stroke="#000000" stroke-width="0.709" stroke-linecap="round" stroke-linejoin="round" stroke-miterlimit="10" d="
		M257.9,633.6c1,0.4,2,0.7,3.1,0.8c0,0,7.7,0,7.7,0v4.6h0.6v2.3c-0.3,0.1-0.5,0.3-0.5,0.7v9.4h-11.1V650"/>
	
		<path fill="none" stroke="#000000" stroke-width="0.709" stroke-linecap="round" stroke-linejoin="round" stroke-miterlimit="10" d="
		M249.4,630.9c2.5,0.1,4.9,0.8,7,2"/>
	
		<path fill="none" stroke="#000000" stroke-width="0.709" stroke-linecap="round" stroke-linejoin="round" stroke-miterlimit="10" d="
		M241.5,632.7c2.2-1.2,4.6-1.8,7.1-1.8"/>
	
		<path fill="none" stroke="#000000" stroke-width="0.709" stroke-linecap="round" stroke-linejoin="round" stroke-miterlimit="10" d="
		M241.5,633.8"/>
	
		<path fill="none" stroke="#000000" stroke-width="0.709" stroke-linecap="round" stroke-linejoin="round" stroke-miterlimit="10" d="
		M210.2,633.1c1.2,0.5,2.4,0.9,3.7,1.1h22.6c1.2-0.2,2.4-0.5,3.6-0.9"/>
	
		<path fill="none" stroke="#000000" stroke-width="0.709" stroke-linecap="round" stroke-linejoin="round" stroke-miterlimit="10" d="
		M208.8,632.3"/>
	
		<path fill="none" stroke="#000000" stroke-width="0.709" stroke-linecap="round" stroke-linejoin="round" stroke-miterlimit="10" d="
		M201,630.6"/>
	
		<path fill="none" stroke="#000000" stroke-width="0.709" stroke-linecap="round" stroke-linejoin="round" stroke-miterlimit="10" d="
		M193.9,632.8"/>
	
		<path fill="none" stroke="#000000" stroke-width="0.709" stroke-linecap="round" stroke-linejoin="round" stroke-miterlimit="10" d="
		M165.1,634.2h21.2c2.1,0,4.2-0.3,6.1-0.9"/>
</g>
<g id="LWPOLYLINE_24_">
	
		<path fill="none" stroke="#000000" stroke-width="0.709" stroke-linecap="round" stroke-linejoin="round" stroke-miterlimit="10" d="
		M210.9,644.4c-0.3,0-0.5-0.1-0.7-0.2c-0.9-0.4-1.3-1.5-0.9-2.4c1.9-1.7,4.2-2.8,6.7-3.1c0,0,18,0,18,0c2.6,0.1,5,1.2,6.7,3.1
		c0.1,0.3,0.1,0.5,0.1,0.8c-0.1,1.1-1.1,1.9-2.2,1.7H210.9z"/>
</g>
<g id="LWPOLYLINE_23_">
	
		<path fill="none" stroke="#000000" stroke-width="0.709" stroke-linecap="round" stroke-linejoin="round" stroke-miterlimit="10" d="
		M164.2,641.9c1.3-1.5,3-2.6,5-3.1h18.2c2.2,0.2,4.2,1.3,5.5,3.1c0.1,0.2,0.2,0.5,0.2,0.8c0,1-0.8,1.7-1.7,1.7h-26.1
		C164.4,644.1,163.9,643,164.2,641.9z"/>
</g>
<path fill="none" stroke="#000000" stroke-width="0.709" stroke-linecap="round" stroke-linejoin="round" stroke-miterlimit="10" d="
	M213.8,634.2c-1.3-0.2-2.7-0.6-3.9-1.2c-4.9-3.3-11.2-3.4-16.2-0.2c-2.4,0.9-4.9,1.4-7.5,1.4"/>
<path fill="none" stroke="#000000" stroke-width="0.709" stroke-linecap="round" stroke-linejoin="round" stroke-miterlimit="10" d="
	M261.2,634.5c-1.3-0.2-2.8-0.5-3.9-1.2c-4.9-3.1-11.3-3.3-16.3-0.4c-2.2,1.3-4.8,1.3-7.4,1.3"/>
<g id="g6072_2_" transform="translate(63.170356,-897.3205)" inkscape:label="0">
	<path id="path6074_2_" inkscape:connector-curvature="0" fill="none" stroke="#000000" d="M208,1385.5h-69.6v35.4H208V1385.5z"/>
	<path id="path6076_2_" inkscape:connector-curvature="0" fill="none" stroke="#000000" d="M234.8,1382.2v42H68.7v-42H234.8
		L234.8,1382.2z"/>
</g>
<g id="ARC">
	
		<path fill="none" stroke="#000000" stroke-width="0.7087" stroke-linecap="round" stroke-linejoin="round" stroke-miterlimit="10" d="
		M349.8,622.5c-3.9-8.1-12.8-12.5-21.6-10.6"/>
</g>
<g id="ARC_1_">
	
		<path fill="none" stroke="#000000" stroke-width="0.7087" stroke-linecap="round" stroke-linejoin="round" stroke-miterlimit="10" d="
		M349.8,622.5c0.3,0.6,0.8,1.1,1.4,1.5"/>
</g>
<g id="LINE">
	
		<line fill="none" stroke="#000000" stroke-width="0.7087" stroke-linecap="round" stroke-linejoin="round" stroke-miterlimit="10" x1="351.2" y1="624" x2="351.2" y2="608"/>
</g>
<g id="LINE_1_">
	
		<line fill="none" stroke="#000000" stroke-width="0.7087" stroke-linecap="round" stroke-linejoin="round" stroke-miterlimit="10" x1="351.2" y1="608" x2="349.2" y2="608"/>
</g>
<g id="SPLINE">
	
		<path fill="none" stroke="#000000" stroke-width="0.7087" stroke-linecap="round" stroke-linejoin="round" stroke-miterlimit="10" d="
		M338.7,603.6c0.9,0.9,2.7,2.5,5,3.5c1.6,0.7,3.4,1,5.5,1"/>
</g>
<g id="SPLINE_1_">
	
		<path fill="none" stroke="#000000" stroke-width="0.7087" stroke-linecap="round" stroke-linejoin="round" stroke-miterlimit="10" d="
		M336,599.3c0.1,0.3,0.3,1,1,2.1c0.3,0.4,0.8,1.2,1.6,2.1"/>
</g>
<g id="SPLINE_2_">
	
		<path fill="none" stroke="#000000" stroke-width="0.7087" stroke-linecap="round" stroke-linejoin="round" stroke-miterlimit="10" d="
		M343,589.5c-1,0-1.9,0-2.8,0.1c-1,0.2-1.6,0.5-1.9,0.7c-0.7,0.4-1.3,1-1.7,1.5c-0.5,0.7-0.8,1.3-1,1.8c-0.3,1-0.4,2-0.3,2.7
		c0.1,1.5,0.5,2.6,0.7,3.1"/>
</g>
<g id="LINE_2_">
	
		<line fill="none" stroke="#000000" stroke-width="0.7087" stroke-linecap="round" stroke-linejoin="round" stroke-miterlimit="10" x1="343" y1="589.5" x2="343" y2="588.7"/>
</g>
<g id="LINE_3_">
	
		<line fill="none" stroke="#000000" stroke-width="0.7087" stroke-linecap="round" stroke-linejoin="round" stroke-miterlimit="10" x1="343" y1="588.7" x2="328.1" y2="588.7"/>
</g>
<g id="LINE_4_">
	
		<line fill="none" stroke="#000000" stroke-width="0.7087" stroke-linecap="round" stroke-linejoin="round" stroke-miterlimit="10" x1="328.1" y1="588.7" x2="328.1" y2="611.9"/>
</g>
<g id="ARC_6_">
	
		<path fill="none" stroke="#000000" stroke-width="0.7087" stroke-linecap="round" stroke-linejoin="round" stroke-miterlimit="10" d="
		M319.3,621.9c-3.9-8.1-12.8-12.5-21.6-10.6"/>
</g>
<g id="ARC_2_">
	
		<path fill="none" stroke="#000000" stroke-width="0.7087" stroke-linecap="round" stroke-linejoin="round" stroke-miterlimit="10" d="
		M319.3,621.9c0.3,0.6,0.8,1.1,1.4,1.5"/>
</g>
<g id="LINE_9_">
	
		<line fill="none" stroke="#000000" stroke-width="0.7087" stroke-linecap="round" stroke-linejoin="round" stroke-miterlimit="10" x1="320.7" y1="623.4" x2="320.7" y2="607.4"/>
</g>
<g id="LINE_8_">
	
		<line fill="none" stroke="#000000" stroke-width="0.7087" stroke-linecap="round" stroke-linejoin="round" stroke-miterlimit="10" x1="320.7" y1="607.4" x2="318.7" y2="607.4"/>
</g>
<g id="SPLINE_5_">
	
		<path fill="none" stroke="#000000" stroke-width="0.7087" stroke-linecap="round" stroke-linejoin="round" stroke-miterlimit="10" d="
		M308.2,603c0.9,0.9,2.7,2.5,5,3.5c1.6,0.7,3.4,1,5.5,1"/>
</g>
<g id="SPLINE_4_">
	
		<path fill="none" stroke="#000000" stroke-width="0.7087" stroke-linecap="round" stroke-linejoin="round" stroke-miterlimit="10" d="
		M305.5,598.8c0.1,0.3,0.3,1,1,2.1c0.3,0.4,0.8,1.2,1.6,2.1"/>
</g>
<g id="SPLINE_3_">
	
		<path fill="none" stroke="#000000" stroke-width="0.7087" stroke-linecap="round" stroke-linejoin="round" stroke-miterlimit="10" d="
		M312.5,588.9c-1,0-1.9,0-2.8,0.1c-1,0.2-1.6,0.5-1.9,0.7c-0.7,0.4-1.3,1-1.7,1.5c-0.5,0.7-0.8,1.3-1,1.8c-0.3,1-0.4,2-0.3,2.7
		c0.1,1.5,0.5,2.6,0.7,3.1"/>
</g>
<g id="LINE_7_">
	
		<line fill="none" stroke="#000000" stroke-width="0.7087" stroke-linecap="round" stroke-linejoin="round" stroke-miterlimit="10" x1="312.5" y1="588.9" x2="312.5" y2="588.1"/>
</g>
<g id="LINE_6_">
	
		<line fill="none" stroke="#000000" stroke-width="0.7087" stroke-linecap="round" stroke-linejoin="round" stroke-miterlimit="10" x1="312.5" y1="588.1" x2="297.6" y2="588.1"/>
</g>
<g id="LINE_5_">
	
		<line fill="none" stroke="#000000" stroke-width="0.7087" stroke-linecap="round" stroke-linejoin="round" stroke-miterlimit="10" x1="297.6" y1="588.1" x2="297.6" y2="611.3"/>
</g>
<g id="LWPOLYLINE_4_">
	
		<path fill="none" stroke="#000000" stroke-width="0.709" stroke-linecap="round" stroke-linejoin="round" stroke-miterlimit="10" d="
		M305.8,533.4h-6.3c1.5,0,3-0.7,4-1.9c1.9-4.1,5.2-7.3,9.2-9.2c9.7-4.6,21.3-0.5,25.9,9.2c0.6,1.2,1.9,2,3.2,2h-8.5
		c-1.3-0.2-2.7-0.6-3.9-1.2c-4.9-3.3-11.2-3.4-16.2-0.2C310.9,532.9,308.3,533.4,305.8,533.4z"/>
</g>
<g id="LWPOLYLINE_1_">
	
		<path fill="none" stroke="#000000" stroke-width="0.709" stroke-linecap="round" stroke-linejoin="round" stroke-miterlimit="10" d="
		M314.5,639.2h-6.3c1.5,0,3-0.7,4-1.9c1.9-4.1,5.2-7.3,9.2-9.2c9.7-4.6,21.3-0.5,25.9,9.2c0.6,1.2,1.9,2,3.2,2H342
		c-1.3-0.2-2.7-0.6-3.9-1.2c-4.9-3.3-11.2-3.4-16.2-0.2C319.6,638.7,317,639.2,314.5,639.2z"/>
</g>
<path fill="none" stroke="#000000" stroke-width="0.709" stroke-linecap="round" stroke-linejoin="round" stroke-miterlimit="10" d="
	M258.9,580.1c1,0.4,2,0.7,3.1,0.8c0,0,7.7,0,7.7,0v4.6"/>
<path fill="none" stroke="#000000" stroke-width="0.709" stroke-linecap="round" stroke-linejoin="round" stroke-miterlimit="10" d="
	M250.5,577.3c2.5,0.1,4.9,0.8,7,2"/>
<path fill="none" stroke="#000000" stroke-width="0.709" stroke-linecap="round" stroke-linejoin="round" stroke-miterlimit="10" d="
	M242.6,579.1c2.2-1.2,4.6-1.8,7.1-1.8"/>
<path fill="none" stroke="#000000" stroke-width="0.709" stroke-linecap="round" stroke-linejoin="round" stroke-miterlimit="10" d="
	M242.6,580.3"/>
<path fill="none" stroke="#000000" stroke-width="0.709" stroke-linecap="round" stroke-linejoin="round" stroke-miterlimit="10" d="
	M225.6,580.7h11.9c1.2-0.2,2.4-0.5,3.6-0.9"/>
<path fill="none" stroke="#000000" stroke-width="0.709" stroke-linecap="round" stroke-linejoin="round" stroke-miterlimit="10" d="
	M262.2,581c-1.3-0.2-2.8-0.5-3.9-1.2c-4.9-3.1-11.3-3.3-16.3-0.4c-2.2,1.3-4.8,1.3-7.4,1.3"/>
<g id="LWPOLYLINE_9_">
	
		<path fill="none" stroke="#000000" stroke-width="0.709" stroke-linecap="round" stroke-linejoin="round" stroke-miterlimit="10" d="
		M256.8,678.8V676c0-0.7-0.7-1.3-1.4-1.3c0,0-0.1,0-0.1,0v1.4h-14.1v-1.4h-76.1c-1.9,0.1-3.5,1.6-3.7,3.5v1.7h-11.6v-1.7
		c-1.9-5.2-7.1-8.4-12.6-7.7l-9.4,0l0-2.4h0.1V663h36.7"/>
	
		<path fill="none" stroke="#000000" stroke-width="0.709" stroke-linecap="round" stroke-linejoin="round" stroke-miterlimit="10" d="
		M267.8,663.3v4.6h0.6v2.3c-0.3,0.1-0.5,0.3-0.5,0.7v9.4h-11.1v-1.5"/>
	
		<path fill="none" stroke="#000000" stroke-width="0.709" stroke-linecap="round" stroke-linejoin="round" stroke-miterlimit="10" d="
		M164.4,663h15.3"/>
</g>
<g id="LWPOLYLINE_8_">
	
		<path fill="none" stroke="#000000" stroke-width="0.709" stroke-linecap="round" stroke-linejoin="round" stroke-miterlimit="10" d="
		M210.1,673.2c-0.3,0-0.5-0.1-0.7-0.2c-0.9-0.4-1.3-1.5-0.9-2.4c1.9-1.7,4.2-2.8,6.7-3.1c0,0,18,0,18,0c2.6,0.1,5,1.2,6.7,3.1
		c0.1,0.3,0.1,0.5,0.1,0.8c-0.1,1.1-1.1,1.9-2.2,1.7H210.1z"/>
</g>
<g id="LWPOLYLINE_7_">
	
		<path fill="none" stroke="#000000" stroke-width="0.709" stroke-linecap="round" stroke-linejoin="round" stroke-miterlimit="10" d="
		M163.5,670.7c1.3-1.5,3-2.6,5-3.1h18.2c2.2,0.2,4.2,1.3,5.5,3.1c0.1,0.2,0.2,0.5,0.2,0.8c0,1-0.8,1.7-1.7,1.7h-26.1
		C163.6,672.9,163.1,671.7,163.5,670.7z"/>
</g>
<g id="LWPOLYLINE_6_">
	
		<path fill="none" stroke="#000000" stroke-width="0.709" stroke-linecap="round" stroke-linejoin="round" stroke-miterlimit="10" d="
		M268,663"/>
	
		<path fill="none" stroke="#000000" stroke-width="0.709" stroke-linecap="round" stroke-linejoin="round" stroke-miterlimit="10" d="
		M225.7,663H222"/>
</g>
<g id="LWPOLYLINE_5_">
	
		<path fill="none" stroke="#000000" stroke-width="0.709" stroke-linecap="round" stroke-linejoin="round" stroke-miterlimit="10" d="
		M213.5,663"/>
	
		<path fill="none" stroke="#000000" stroke-width="0.709" stroke-linecap="round" stroke-linejoin="round" stroke-miterlimit="10" d="
		M179.7,663c1.5,0,3-0.7,4-1.9c1.9-4.1,5.2-7.3,9.2-9.2c9.7-4.6,21.3-0.5,25.9,9.2c0.6,1.2,1.9,2,3.2,2"/>
</g>
<path fill="none" stroke="#000000" stroke-width="0.709" stroke-linecap="round" stroke-linejoin="round" stroke-miterlimit="10" d="
	M267.8,663.3"/>
<path fill="none" stroke="#000000" stroke-width="0.709" stroke-linecap="round" stroke-linejoin="round" stroke-miterlimit="10" d="
	M257.4,662.5c1,0.4,2,0.7,3.1,0.8c0,0,7.7,0,7.7,0v4.6"/>
<path fill="none" stroke="#000000" stroke-width="0.709" stroke-linecap="round" stroke-linejoin="round" stroke-miterlimit="10" d="
	M249,659.7c2.5,0.1,4.9,0.8,7,2"/>
<path fill="none" stroke="#000000" stroke-width="0.709" stroke-linecap="round" stroke-linejoin="round" stroke-miterlimit="10" d="
	M241.1,661.5c2.2-1.2,4.6-1.8,7.1-1.8"/>
<path fill="none" stroke="#000000" stroke-width="0.709" stroke-linecap="round" stroke-linejoin="round" stroke-miterlimit="10" d="
	M241.1,662.6"/>
<path fill="none" stroke="#000000" stroke-width="0.709" stroke-linecap="round" stroke-linejoin="round" stroke-miterlimit="10" d="
	M224.2,663.1h11.9c1.2-0.2,2.4-0.5,3.6-0.9"/>
<path fill="none" stroke="#000000" stroke-width="0.709" stroke-linecap="round" stroke-linejoin="round" stroke-miterlimit="10" d="
	M260.8,663.4c-1.3-0.2-2.8-0.5-3.9-1.2c-4.9-3.1-11.3-3.3-16.3-0.4c-2.2,1.3-4.8,1.3-7.4,1.3"/>
<g id="LWPOLYLINE_10_">
	
		<path fill="none" stroke="#000000" stroke-width="0.709" stroke-linecap="round" stroke-linejoin="round" stroke-miterlimit="10" d="
		M320.4,660.6h-6.3c1.5,0,3-0.7,4-1.9c1.9-4.1,5.2-7.3,9.2-9.2c9.7-4.6,21.3-0.5,25.9,9.2c0.6,1.2,1.9,2,3.2,2H348
		c-1.3-0.2-2.7-0.6-3.9-1.2c-4.9-3.3-11.2-3.4-16.2-0.2C325.5,660.1,323,660.6,320.4,660.6z"/>
</g>
<g id="LWPOLYLINE_11_">
	
		<path fill="none" stroke="#000000" stroke-width="0.709" stroke-linecap="round" stroke-linejoin="round" stroke-miterlimit="10" d="
		M353.8,679.8H320c1.5,0,3-0.7,4-1.9c1.9-4.1,5.2-7.3,9.2-9.2c9.7-4.6,21.3-0.5,25.9,9.2c0.6,1.2,1.9,2,3.2,2H353.8"/>
</g>
<g id="LWPOLYLINE_14_">
	
		<path fill="none" stroke="#000000" stroke-width="0.709" stroke-linecap="round" stroke-linejoin="round" stroke-miterlimit="10" d="
		M307.1,679.8h-33.8c1.5,0,3-0.7,4-1.9c1.9-4.1,5.2-7.3,9.2-9.2c9.7-4.6,21.3-0.5,25.9,9.2c0.6,1.2,1.9,2,3.2,2H307.1"/>
</g>
<path id="path6352_2_" inkscape:connector-curvature="0" fill="none" stroke="#000000" d="M291.9,475.5v5.4h-160v-5.4H291.9z"/>
<path id="path6352_3_" inkscape:connector-curvature="0" fill="none" stroke="#000000" d="M291.9,463.3v8.5h-160v-8.5H291.9z"/>
<path id="path6352_4_" inkscape:connector-curvature="0" fill="none" stroke="#000000" d="M292.4,451.2v8.5h-160v-8.5H292.4z"/>
</svg>
